<svg width="24" height="20" viewBox="0 0 24 20" fill="none" xmlns="http://www.w3.org/2000/svg">
<path d="M12.8987 19.58C12.7644 19.4473 12.6579 19.2896 12.5853 19.116C12.5126 18.9424 12.4752 18.7563 12.4752 18.5683C12.4752 18.3804 12.5126 18.1943 12.5853 18.0207C12.6579 17.8471 12.7644 17.6894 12.8987 17.5567L19.0762 11.4288L1.43972 11.4288C1.05788 11.4288 0.691682 11.2784 0.421684 11.0105C0.151685 10.7427 -4.537e-07 10.3794 -4.37143e-07 10.0007C-4.20587e-07 9.62191 0.151685 9.25865 0.421684 8.99082C0.691682 8.723 1.05788 8.57253 1.43972 8.57253L19.0762 8.57253L12.8987 2.44222C12.6282 2.17393 12.4762 1.81005 12.4762 1.43062C12.4762 1.0512 12.6282 0.687313 12.8987 0.419019C13.1691 0.150725 13.536 -4.534e-07 13.9185 -4.40678e-07C14.301 -4.27957e-07 14.6678 0.150726 14.9383 0.419019L23.5765 8.98788C23.7108 9.12056 23.8173 9.27822 23.8899 9.45181C23.9626 9.62541 24 9.81152 24 9.99949C24 10.1874 23.9626 10.3736 23.8899 10.5472C23.8173 10.7208 23.7108 10.8784 23.5765 11.0111L14.9383 19.58C14.8045 19.7131 14.6456 19.8187 14.4706 19.8908C14.2956 19.9629 14.1079 20 13.9185 20C13.729 20 13.5413 19.9629 13.3663 19.8908C13.1913 19.8187 13.0324 19.7131 12.8987 19.58Z" fill="#89BF15"/>
</svg>
