<svg width="22" height="22" viewBox="0 0 22 22" fill="none" xmlns="http://www.w3.org/2000/svg">
<path d="M19.3459 2.02918V1.50824C19.3448 1.10855 19.1856 0.725539 18.903 0.442918C18.6203 0.160298 18.2373 0.00105581 17.8376 0C17.4378 0.000435967 17.0544 0.159479 16.7716 0.442233C16.4889 0.724988 16.3298 1.10836 16.3294 1.50824V2.00471H14.7859V1.50824C14.7859 1.10863 14.6273 0.725364 14.345 0.442583C14.0626 0.159802 13.6796 0.000623403 13.28 0C12.8801 0.000498108 12.4968 0.159561 12.2141 0.442302C11.9313 0.725043 11.7723 1.10838 11.7718 1.50824V2.00471H10.2282V1.50824C10.2282 1.31033 10.1893 1.11435 10.1135 0.931509C10.0378 0.748664 9.92677 0.582527 9.78683 0.442584C9.64688 0.30264 9.48075 0.191631 9.2979 0.115895C9.11506 0.0401577 8.91909 0.00117627 8.72118 0.00117627C8.52327 0.00117627 8.32729 0.0401577 8.14445 0.115895C7.9616 0.191631 7.79547 0.30264 7.65552 0.442584C7.51558 0.582527 7.40457 0.748664 7.32884 0.931509C7.2531 1.11435 7.21412 1.31033 7.21412 1.50824V2.00471H5.67059V1.50824C5.66953 1.10855 5.51029 0.725539 5.22767 0.442918C4.94505 0.160298 4.56204 0.00105581 4.16235 0C3.7625 0.000498108 3.37916 0.159561 3.09642 0.442302C2.81368 0.725043 2.65462 1.10838 2.65412 1.50824V2.02918C1.92251 2.11939 1.24903 2.47371 0.760284 3.02555C0.271536 3.57738 0.00116907 4.28873 0 5.02588V18.9788C0.000934087 19.7798 0.319535 20.5477 0.885914 21.1141C1.45229 21.6805 2.2202 21.9991 3.02118 22H18.9788C19.7798 21.9991 20.5477 21.6805 21.1141 21.1141C21.6805 20.5477 21.9991 19.7798 22 18.9788V5.02588C21.9988 4.28873 21.7285 3.57738 21.2397 3.02555C20.751 2.47371 20.0775 2.11939 19.3459 2.02918ZM17.1529 1.50824C17.1532 1.32672 17.2254 1.1527 17.3538 1.02435C17.4821 0.895997 17.6561 0.823778 17.8376 0.823529C18.0189 0.82464 18.1924 0.897135 18.3206 1.0253C18.4487 1.15347 18.5212 1.32698 18.5224 1.50824V3.32471C18.5224 3.5063 18.4502 3.68046 18.3218 3.80887C18.1934 3.93727 18.0192 4.00941 17.8376 4.00941C17.6561 4.00941 17.4819 3.93727 17.3535 3.80887C17.2251 3.68046 17.1529 3.5063 17.1529 3.32471V1.50824ZM12.5953 1.50824C12.5955 1.3267 12.6677 1.15265 12.796 1.02428C12.9244 0.895915 13.0985 0.823716 13.28 0.823529C13.4612 0.82409 13.6348 0.896484 13.7627 1.02484C13.8906 1.15319 13.9624 1.32703 13.9624 1.50824V3.32471C13.9624 3.50599 13.8903 3.67985 13.7622 3.80803C13.634 3.93622 13.4601 4.00824 13.2788 4.00824C13.0975 4.00824 12.9237 3.93622 12.7955 3.80803C12.6673 3.67985 12.5953 3.50599 12.5953 3.32471V1.50824ZM8.03765 1.50824C8.03765 1.32695 8.10966 1.15309 8.23785 1.02491C8.36604 0.89672 8.53989 0.824706 8.72118 0.824706C8.90246 0.824706 9.07632 0.89672 9.2045 1.02491C9.33269 1.15309 9.40471 1.32695 9.40471 1.50824V3.32471C9.40471 3.50599 9.33269 3.67985 9.2045 3.80803C9.07632 3.93622 8.90246 4.00824 8.72118 4.00824C8.53989 4.00824 8.36604 3.93622 8.23785 3.80803C8.10966 3.67985 8.03765 3.50599 8.03765 3.32471V1.50824ZM3.47765 1.50824C3.47783 1.3267 3.55003 1.15265 3.6784 1.02428C3.80677 0.895915 3.98081 0.823716 4.16235 0.823529C4.34361 0.82464 4.51712 0.897135 4.64529 1.0253C4.77345 1.15347 4.84595 1.32698 4.84706 1.50824V3.32471C4.84706 3.5063 4.77492 3.68046 4.64651 3.80887C4.51811 3.93727 4.34395 4.00941 4.16235 4.00941C3.98076 4.00941 3.8066 3.93727 3.67819 3.80887C3.54979 3.68046 3.47765 3.5063 3.47765 3.32471V1.50824ZM2.65412 2.86141V3.32471C2.65412 3.72471 2.81302 4.10834 3.09587 4.39119C3.37872 4.67404 3.76234 4.83294 4.16235 4.83294C4.56236 4.83294 4.94599 4.67404 5.22884 4.39119C5.51168 4.10834 5.67059 3.72471 5.67059 3.32471V2.82824H7.21412V3.32471C7.21412 3.7244 7.3729 4.10773 7.65552 4.39036C7.93815 4.67299 8.32148 4.83176 8.72118 4.83176C9.12087 4.83176 9.5042 4.67299 9.78683 4.39036C10.0695 4.10773 10.2282 3.7244 10.2282 3.32471V2.82824H11.7718V3.32471C11.7718 3.7244 11.9305 4.10773 12.2132 4.39036C12.4958 4.67299 12.8791 4.83176 13.2788 4.83176C13.6785 4.83176 14.0618 4.67299 14.3445 4.39036C14.6271 4.10773 14.7859 3.7244 14.7859 3.32471V2.82824H16.3294V3.32471C16.3294 3.72471 16.4883 4.10834 16.7712 4.39119C17.054 4.67404 17.4376 4.83294 17.8376 4.83294C18.2377 4.83294 18.6213 4.67404 18.9041 4.39119C19.187 4.10834 19.3459 3.72471 19.3459 3.32471V2.86141C19.8573 2.94842 20.3215 3.21339 20.6565 3.6095C20.9914 4.00561 21.1756 4.50736 21.1765 5.02612V6.26541H0.823529V5.02588C0.824448 4.50717 1.00866 4.00547 1.34363 3.60941C1.67859 3.21335 2.14275 2.94842 2.65412 2.86141ZM18.9788 21.1765H3.02118C2.43853 21.1758 1.87995 20.944 1.46796 20.532C1.05597 20.12 0.824214 19.5615 0.823529 18.9788V7.08941H21.1765V18.9788C21.1758 19.5615 20.944 20.12 20.532 20.532C20.12 20.944 19.5615 21.1758 18.9788 21.1765Z" fill="white"/>
<path d="M5.74923 9.14941H4.08664C3.7972 9.14979 3.51972 9.26493 3.31506 9.4696C3.11039 9.67426 2.99525 9.95174 2.99487 10.2412V11.9038C2.99525 12.1932 3.11039 12.4707 3.31506 12.6753C3.51972 12.88 3.7972 12.9952 4.08664 12.9955H5.74923C6.03866 12.9952 6.31614 12.88 6.52081 12.6753C6.72547 12.4707 6.84062 12.1932 6.84099 11.9038V10.2412C6.84062 9.95174 6.72547 9.67426 6.52081 9.4696C6.31614 9.26493 6.03866 9.14979 5.74923 9.14941ZM6.01746 11.9038C6.0174 11.9749 5.98912 12.0431 5.93883 12.0934C5.88854 12.1437 5.82035 12.1719 5.74923 12.172H4.08664C4.01552 12.1719 3.94733 12.1437 3.89704 12.0934C3.84675 12.0431 3.81846 11.9749 3.8184 11.9038V10.2412C3.81846 10.1701 3.84675 10.1019 3.89704 10.0516C3.94733 10.0013 4.01552 9.97301 4.08664 9.97294H5.74923C5.82035 9.97301 5.88854 10.0013 5.93883 10.0516C5.98912 10.1019 6.0174 10.1701 6.01746 10.2412V11.9038Z" fill="white"/>
<path d="M11.8313 9.14941H10.1687C9.87923 9.14979 9.60175 9.26493 9.39709 9.4696C9.19242 9.67426 9.07728 9.95174 9.0769 10.2412V11.9038C9.07728 12.1932 9.19242 12.4707 9.39709 12.6753C9.60175 12.88 9.87923 12.9952 10.1687 12.9955H11.8313C12.1207 12.9952 12.3982 12.88 12.6028 12.6753C12.8075 12.4707 12.9226 12.1932 12.923 11.9038V10.2412C12.9226 9.95174 12.8075 9.67426 12.6028 9.4696C12.3982 9.26493 12.1207 9.14979 11.8313 9.14941ZM12.0995 11.9038C12.0994 11.9749 12.0711 12.0431 12.0209 12.0934C11.9706 12.1437 11.9024 12.1719 11.8313 12.172H10.1687C10.0975 12.1719 10.0294 12.1437 9.97907 12.0934C9.92878 12.0431 9.9005 11.9749 9.90043 11.9038V10.2412C9.9005 10.1701 9.92878 10.1019 9.97907 10.0516C10.0294 10.0013 10.0975 9.97301 10.1687 9.97294H11.8313C11.9024 9.97301 11.9706 10.0013 12.0209 10.0516C12.0711 10.1019 12.0994 10.1701 12.0995 10.2412V11.9038Z" fill="white"/>
<path d="M18.447 9.71274L16.6 11.5589L15.7162 10.6751C15.6385 10.6001 15.5345 10.5586 15.4265 10.5596C15.3186 10.5605 15.2153 10.6039 15.139 10.6802C15.0626 10.7566 15.0194 10.8599 15.0184 10.9678C15.0175 11.0758 15.0591 11.1798 15.1341 11.2574L16.3089 12.4323C16.3471 12.4705 16.3925 12.5009 16.4425 12.5216C16.4924 12.5423 16.546 12.553 16.6001 12.553C16.6542 12.553 16.7077 12.5423 16.7577 12.5216C16.8076 12.5009 16.853 12.4705 16.8913 12.4323L19.0294 10.2941C19.1066 10.2169 19.15 10.1122 19.15 10.003C19.15 9.89376 19.1066 9.78902 19.0294 9.7118C18.9521 9.63457 18.8474 9.59119 18.7382 9.59119C18.629 9.59119 18.5242 9.63457 18.447 9.7118V9.71274Z" fill="white"/>
<path d="M5.74923 14.8214H4.08664C3.7972 14.8218 3.51972 14.9369 3.31506 15.1416C3.11039 15.3463 2.99525 15.6237 2.99487 15.9132V17.5758C2.99525 17.8652 3.11039 18.1427 3.31506 18.3473C3.51972 18.552 3.7972 18.6672 4.08664 18.6675H5.74923C6.03866 18.6672 6.31614 18.552 6.52081 18.3473C6.72547 18.1427 6.84062 17.8652 6.84099 17.5758V15.9132C6.84062 15.6237 6.72547 15.3463 6.52081 15.1416C6.31614 14.9369 6.03866 14.8218 5.74923 14.8214ZM6.01746 17.5758C6.0174 17.6469 5.98912 17.7151 5.93883 17.7654C5.88854 17.8157 5.82035 17.8439 5.74923 17.844H4.08664C4.01552 17.8439 3.94733 17.8157 3.89704 17.7654C3.84675 17.7151 3.81846 17.6469 3.8184 17.5758V15.9132C3.81846 15.8421 3.84675 15.7739 3.89704 15.7236C3.94733 15.6733 4.01552 15.645 4.08664 15.6449H5.74923C5.82035 15.645 5.88854 15.6733 5.93883 15.7236C5.98912 15.7739 6.0174 15.8421 6.01746 15.9132V17.5758Z" fill="white"/>
<path d="M11.8313 14.8214H10.1687C9.87923 14.8218 9.60175 14.9369 9.39709 15.1416C9.19242 15.3463 9.07728 15.6237 9.0769 15.9132V17.5758C9.07728 17.8652 9.19242 18.1427 9.39709 18.3473C9.60175 18.552 9.87923 18.6672 10.1687 18.6675H11.8313C12.1207 18.6672 12.3982 18.552 12.6028 18.3473C12.8075 18.1427 12.9226 17.8652 12.923 17.5758V15.9132C12.9226 15.6237 12.8075 15.3463 12.6028 15.1416C12.3982 14.9369 12.1207 14.8218 11.8313 14.8214ZM12.0995 17.5758C12.0994 17.6469 12.0711 17.7151 12.0209 17.7654C11.9706 17.8157 11.9024 17.8439 11.8313 17.844H10.1687C10.0975 17.8439 10.0294 17.8157 9.97907 17.7654C9.92878 17.7151 9.9005 17.6469 9.90043 17.5758V15.9132C9.9005 15.8421 9.92878 15.7739 9.97907 15.7236C10.0294 15.6733 10.0975 15.645 10.1687 15.6449H11.8313C11.9024 15.645 11.9706 15.6733 12.0209 15.7236C12.0711 15.7739 12.0994 15.8421 12.0995 15.9132V17.5758Z" fill="white"/>
<path d="M17.9134 14.8214H16.2508C15.9614 14.8218 15.6839 14.9369 15.4792 15.1416C15.2746 15.3463 15.1594 15.6237 15.1591 15.9132V17.5758C15.1594 17.8652 15.2746 18.1427 15.4792 18.3473C15.6839 18.552 15.9614 18.6672 16.2508 18.6675H17.9134C18.2029 18.6672 18.4803 18.552 18.685 18.3473C18.8897 18.1427 19.0048 17.8652 19.0052 17.5758V15.9132C19.0048 15.6237 18.8897 15.3463 18.685 15.1416C18.4803 14.9369 18.2029 14.8218 17.9134 14.8214ZM18.1816 17.5758C18.1816 17.6469 18.1533 17.7151 18.103 17.7654C18.0527 17.8157 17.9845 17.8439 17.9134 17.844H16.2508C16.1797 17.8439 16.1115 17.8157 16.0612 17.7654C16.0109 17.7151 15.9826 17.6469 15.9826 17.5758V15.9132C15.9826 15.8421 16.0109 15.7739 16.0612 15.7236C16.1115 15.6733 16.1797 15.645 16.2508 15.6449H17.9134C17.9845 15.645 18.0527 15.6733 18.103 15.7236C18.1533 15.7739 18.1816 15.8421 18.1816 15.9132V17.5758Z" fill="white"/>
</svg>
