<svg width="21" height="30" viewBox="0 0 21 30" fill="none" xmlns="http://www.w3.org/2000/svg">
<path d="M4.03348 17.4581L4.03346 17.4581C1.77252 15.3838 0.670339 12.439 1.01071 9.37907C1.49735 5.00468 5.03758 1.48507 9.42913 1.00936C12.1863 0.709561 14.8312 1.55242 16.8759 3.37942C18.8932 5.18154 20.05 7.76264 20.05 10.4609C20.05 13.1287 18.9157 15.6897 16.9374 17.4878C16.3413 18.0299 15.8425 18.6543 15.4542 19.3432L15.4542 19.3433C15.3234 19.5744 15.0304 19.6564 14.7985 19.5269C14.5666 19.3974 14.4836 19.1048 14.6141 18.8734C15.0527 18.0948 15.6156 17.3901 16.2883 16.779C18.0665 15.1621 19.0864 12.8592 19.0864 10.4609C19.0864 8.03489 18.0464 5.71433 16.2325 4.09406C14.3938 2.45162 12.0184 1.69517 9.53351 1.96365C5.5872 2.39108 2.40578 5.55445 1.96859 9.48458L1.9189 9.47906L1.96859 9.48459C1.66214 12.2383 2.65267 14.8867 4.68632 16.7518C5.88934 17.855 6.73229 19.2166 7.13977 20.7101H14.2481C15.1854 20.7101 15.9484 21.4694 15.9484 22.4033C15.9484 22.8813 15.745 23.3092 15.4247 23.6167C15.745 23.9241 15.9484 24.3519 15.9484 24.83C15.9484 25.7638 15.1855 26.5233 14.2481 26.5233H8.43197C8.68426 27.433 9.51381 28.09 10.5 28.09C11.192 28.09 11.8231 27.7701 12.2323 27.2122L12.2324 27.2121C12.3895 26.9988 12.6905 26.9512 12.9055 27.1077C13.1206 27.264 13.1672 27.5643 13.0104 27.7785L13.0104 27.7785C12.4267 28.5747 11.4883 29.05 10.5 29.05C8.97962 29.05 7.71926 27.9716 7.44732 26.5234H6.75194C5.81456 26.5234 5.05199 25.7639 5.05199 24.83C5.05199 24.6512 5.07978 24.4757 5.13413 24.3084C5.21609 24.0561 5.4885 23.9183 5.741 24M4.03348 17.4581L5.72561 24.0476M4.03348 17.4581C5.06486 18.4035 5.79281 19.5591 6.16622 20.8217C5.51855 21.0603 5.05199 21.6751 5.05199 22.4033C5.05199 23.3372 5.81456 24.0967 6.75194 24.0967H14.2482C14.6546 24.0967 14.985 24.426 14.985 24.83C14.985 25.2343 14.6546 25.5635 14.2482 25.5635H6.75194C6.3459 25.5635 6.01554 25.2342 6.01554 24.83C6.01554 24.7517 6.02742 24.676 6.05061 24.6047M4.03348 17.4581L6.00306 24.5892M5.741 24L5.72561 24.0476M5.741 24C5.74099 24 5.74098 24 5.74097 24L5.72561 24.0476M5.741 24C5.99395 24.0817 6.13299 24.3523 6.05061 24.6047M5.72561 24.0476C5.95245 24.1208 6.07683 24.3633 6.00306 24.5892M6.05061 24.6047L6.00306 24.5892M6.05061 24.6047C6.0506 24.6047 6.0506 24.6047 6.05059 24.6047L6.00306 24.5892M14.2482 21.67C14.6546 21.67 14.985 21.9993 14.985 22.4033C14.985 22.8076 14.6546 23.1368 14.2482 23.1368H6.75194C6.3459 23.1368 6.01554 22.8076 6.01554 22.4033C6.01554 21.9993 6.3459 21.67 6.75194 21.67H6.76205H14.2482Z" fill="white" stroke="white" stroke-width="0.1"/>
<path d="M9.8253 20.3747L9.82528 20.3746L7.1895 13.864L7.18949 13.864C7.13488 13.729 7.14476 13.5766 7.21631 13.4495L7.21633 13.4495C7.28785 13.3228 7.413 13.2349 7.55696 13.211M9.8253 20.3747L7.56514 13.2604M9.8253 20.3747C9.8997 20.558 10.0775 20.675 10.2718 20.675C10.2918 20.675 10.3125 20.6739 10.3328 20.6713L10.3329 20.6713C10.5501 20.6437 10.7215 20.4739 10.7497 20.2574L9.8253 20.3747ZM7.55696 13.211L7.56514 13.2604M7.55696 13.211L7.55694 13.211L7.56514 13.2604M7.55696 13.211L9.78511 12.8404M7.56514 13.2604L9.79524 12.8894L9.78511 12.8404M9.78511 12.8404L9.83447 12.8322L9.8446 12.8812L9.16826 9.61039C9.14212 9.48378 9.17459 9.35218 9.2564 9.25204C9.3386 9.15189 9.46131 9.09375 9.59118 9.09375H12.5179C12.7203 9.09375 12.8953 9.23357 12.9392 9.43027M9.78511 12.8404L9.1193 9.62052L9.11929 9.6205C9.0901 9.4791 9.12637 9.33217 9.21767 9.22041L9.21775 9.22031C9.30944 9.10861 9.44633 9.04375 9.59118 9.04375H12.5179C12.7436 9.04375 12.939 9.1997 12.988 9.4194M12.988 9.4194L12.988 9.41936L12.9392 9.43027M12.988 9.4194L12.9392 9.43027M12.988 9.4194L14.2483 15.0516L14.2483 15.0516C14.3053 15.307 14.1465 15.561 13.8912 15.6224L13.8795 15.5737L14.1995 15.0625L12.9392 9.43027M10.0327 18.32L10.3634 15.8019L10.3634 15.8018C10.3893 15.6052 10.5338 15.4444 10.7276 15.3978L10.0327 18.32ZM10.0327 18.32L8.30786 14.0594L10.4372 13.7051L10.4373 13.7051C10.5661 13.6836 10.6809 13.6108 10.7549 13.5032L10.7136 13.4749L10.7548 13.5033C10.8292 13.3957 10.856 13.2627 10.8297 13.1349L10.8297 13.1349L10.1822 10.0036H12.1317L13.2047 14.8003L10.7277 15.3978L10.0327 18.32Z" fill="white" stroke="white" stroke-width="0.1"/>
</svg>
