<svg width="27" height="28" viewBox="0 0 27 28" fill="none" xmlns="http://www.w3.org/2000/svg">
<path d="M22.0938 24.9813C23.0126 24.9813 23.7563 24.2375 23.7563 23.3188V12.4688C23.7563 11.55 23.0126 10.8063 22.0938 10.8063H4.6813C3.76255 10.8063 3.0188 11.55 3.0188 12.4688V23.3188C3.0188 24.2375 3.76255 24.9813 4.6813 24.9813H22.0938ZM3.85005 23.3625V12.4688C3.85005 12.0313 4.20005 11.6813 4.63755 11.6813H22.05C22.4875 11.6813 22.8375 12.0313 22.8375 12.4688V23.3188C22.8375 23.7563 22.4875 24.1063 22.05 24.1063H4.6813C4.2438 24.15 3.85005 23.8 3.85005 23.3625Z" fill="white"/>
<path d="M12.4687 16.7125L13.0375 16.1438V20.2125H12.2937C12.075 20.2125 11.8562 20.3875 11.8562 20.65C11.8562 20.8688 12.0312 21.0875 12.2937 21.0875H14.6125C14.8312 21.0875 15.05 20.9125 15.05 20.65C15.05 20.4313 14.875 20.2125 14.6125 20.2125H13.8687V15.1375C13.8687 14.9625 13.7812 14.8313 13.6062 14.7438C13.4312 14.6563 13.2562 14.7 13.125 14.8313L11.8562 16.1C11.6812 16.275 11.6812 16.5375 11.8562 16.7125C12.0312 16.8875 12.2937 16.8875 12.4687 16.7125Z" fill="white"/>
<path d="M24.1937 2.49375H22.575V1.4875C22.575 0.65625 21.875 0 21.0437 0C20.2125 0 19.5562 0.65625 19.5562 1.4875V2.49375H17.4562V1.4875C17.4562 0.65625 16.8 0 15.9687 0C15.1375 0 14.4812 0.65625 14.4812 1.4875V2.49375H12.3812V1.4875C12.3812 0.65625 11.725 0 10.8937 0C10.0625 0 9.40625 0.65625 9.40625 1.4875V2.49375H7.30625V1.4875C7.30625 0.65625 6.65 0 5.81875 0C4.9 0 4.2 0.65625 4.2 1.4875V2.49375H2.58125C1.18125 2.49375 0 3.63125 0 5.075V8.00625C0 8.225 0.175 8.44375 0.4375 8.44375H23.5812C23.8 8.44375 24.0187 8.26875 24.0187 8.00625C24.0187 7.74375 23.8437 7.56875 23.5812 7.56875H0.83125V5.03125C0.83125 4.06875 1.61875 3.325 2.5375 3.325H4.2V4.33125C4.2 5.1625 4.85625 5.81875 5.6875 5.81875C6.51875 5.81875 7.175 5.1625 7.175 4.33125C7.175 4.1125 7 3.89375 6.7375 3.89375C6.51875 3.89375 6.3 4.06875 6.3 4.33125C6.3 4.68125 5.99375 4.9875 5.64375 4.9875C5.29375 4.9875 4.9875 4.68125 4.9875 4.33125V1.4875C4.9875 1.1375 5.29375 0.83125 5.64375 0.83125C5.99375 0.83125 6.3 1.1375 6.3 1.4875V2.93125C6.3 3.15 6.475 3.36875 6.7375 3.36875H9.275V4.375C9.275 5.20625 9.93125 5.8625 10.7625 5.8625C11.5937 5.8625 12.25 5.20625 12.25 4.375C12.25 4.15625 12.075 3.9375 11.8125 3.9375C11.5937 3.9375 11.375 4.1125 11.375 4.375C11.375 4.725 11.0687 5.03125 10.7187 5.03125C10.3687 5.03125 10.0625 4.725 10.0625 4.375V1.4875C10.0625 1.1375 10.3687 0.83125 10.7187 0.83125C11.0687 0.83125 11.375 1.1375 11.375 1.4875V2.93125C11.375 3.15 11.55 3.36875 11.8125 3.36875H14.35V4.375C14.35 5.20625 15.0062 5.8625 15.8375 5.8625C16.6687 5.8625 17.325 5.20625 17.325 4.375C17.325 4.15625 17.15 3.9375 16.8875 3.9375C16.6687 3.9375 16.45 4.1125 16.45 4.375C16.45 4.725 16.1437 5.03125 15.7937 5.03125C15.4437 5.03125 15.1375 4.725 15.1375 4.375V1.4875C15.1375 1.1375 15.4437 0.83125 15.7937 0.83125C16.1437 0.83125 16.45 1.1375 16.45 1.4875V2.93125C16.45 3.15 16.625 3.36875 16.8875 3.36875H19.425V4.375C19.425 5.20625 20.0812 5.8625 20.9125 5.8625C21.7437 5.8625 22.4 5.20625 22.4 4.375C22.4 4.15625 22.225 3.9375 21.9625 3.9375C21.7437 3.9375 21.525 4.1125 21.525 4.375C21.525 4.725 21.2187 5.03125 20.8687 5.03125C20.5187 5.03125 20.2125 4.725 20.2125 4.375V1.4875C20.2125 1.1375 20.5187 0.83125 20.8687 0.83125C21.2187 0.83125 21.525 1.1375 21.525 1.4875V2.93125C21.525 3.15 21.7 3.36875 21.9625 3.36875H24.0187C24.9812 3.36875 25.725 4.15625 25.725 5.075V25.4187C25.725 26.3812 24.9375 27.125 24.0187 27.125H2.58125C1.61875 27.125 0.875 26.3375 0.875 25.4187V9.975C0.875 9.75625 0.7 9.5375 0.4375 9.5375C0.21875 9.5375 0 9.7125 0 9.975V25.4187C0 26.8187 1.1375 28 2.58125 28H24.1937C25.5937 28 26.775 26.8625 26.775 25.4187V5.075C26.775 3.675 25.5937 2.49375 24.1937 2.49375Z" fill="white"/>
</svg>
