<svg width="208" height="51" viewBox="0 0 208 51" fill="none" xmlns="http://www.w3.org/2000/svg">
<g clip-path="url(#clip0_36_79)">
<path d="M86.1496 35.7586V23.1761C86.1496 20.6598 84.5297 18.8518 81.608 18.8518C78.4746 18.8518 76.2918 21.368 76.2918 24.877V35.7586H74.7783V23.1761C74.7783 20.6598 73.1584 18.8518 70.2367 18.8518C67.1033 18.8518 64.9205 21.368 64.9205 24.877V35.7586H63.407V17.8948H64.7101V21.5454C65.9421 18.603 68.0196 17.5044 70.414 17.5044C72.9491 17.5044 75.4133 18.7446 76.0825 21.474C77.2449 18.7446 79.2514 17.5044 81.7865 17.5044C84.8147 17.5044 87.6667 19.241 87.6667 23.2106V35.7574H86.1532L86.1496 35.7586Z" fill="white"/>
<path d="M106.992 31.3272C106.112 34.4112 103.859 36.1824 100.126 36.1824C95.0911 36.1824 92.1327 32.7091 92.1327 26.86C92.1327 21.011 95.3015 17.5032 100.126 17.5032C104.95 17.5032 107.238 20.9407 107.238 26.0804L107.167 27.0374H93.7171C93.7526 31.9283 95.9708 34.7992 100.126 34.7992C103.259 34.7992 104.949 33.5947 105.618 31.326H106.991L106.992 31.3272ZM105.655 25.7281C105.584 21.4752 104.176 18.8518 100.127 18.8518C96.0784 18.8518 94.0706 21.368 93.7538 25.7281H105.655Z" fill="white"/>
<path d="M111.851 35.7586V17.8948H113.154V21.9001C114.175 18.6042 116.182 17.5056 117.802 17.5056C118.19 17.5056 118.788 17.5413 119.491 17.7531V19.0648H117.871C115.372 19.0648 113.364 21.4752 113.364 25.4448V35.7586H111.851Z" fill="white"/>
<path d="M135.265 31.2927C134.385 34.4112 132.131 36.1835 128.505 36.1835C123.399 36.1835 120.442 32.7103 120.442 26.8612C120.442 21.0121 123.611 17.5044 128.505 17.5044C132.131 17.5044 134.421 19.1708 135.231 22.2536L133.822 22.431C133.153 20.1266 131.463 18.8506 128.506 18.8506C124.21 18.8506 122.028 21.793 122.028 26.8612C122.028 31.9295 124.246 34.8004 128.506 34.8004C131.534 34.8004 133.224 33.5959 133.893 31.2915H135.266L135.265 31.2927Z" fill="white"/>
<path d="M151.884 35.7586V32.108C150.511 34.9433 148.257 36.1835 145.51 36.1835C142.13 36.1835 139.313 34.4469 139.313 30.3V17.8948H140.827V30.3357C140.827 33.0293 142.376 34.8016 145.685 34.8016C149.242 34.8016 151.671 32.2853 151.671 28.7764V17.8948H153.184V35.7586H151.881H151.884Z" fill="white"/>
<path d="M159.03 35.7586V17.8948H160.333V21.9001C161.355 18.6042 163.361 17.5056 164.981 17.5056C165.369 17.5056 165.967 17.5413 166.671 17.7531V19.0648H165.051C162.551 19.0648 160.544 21.4752 160.544 25.4448V35.7586H159.03Z" fill="white"/>
<path d="M169.31 13.6764V11.1601H171.035V13.6764H169.31ZM169.417 35.7586V17.8948H170.93V35.7586H169.417Z" fill="white"/>
<path d="M189.344 35.7586V32.108C187.971 34.9433 185.717 36.1835 182.971 36.1835C179.59 36.1835 176.773 34.4469 176.773 30.3V17.8948H178.287V30.3357C178.287 33.0293 179.836 34.8016 183.146 34.8016C186.702 34.8016 189.131 32.2853 189.131 28.7764V17.8948H190.644V35.7586H189.341H189.344Z" fill="white"/>
<path d="M206.103 22.4667C205.822 19.2053 203.357 18.7446 201.28 18.7446C198.991 18.7446 196.739 19.4886 196.739 21.9346C196.739 27.6051 207.689 24.0617 207.689 31.2569C207.689 34.1981 205.295 36.1835 201.175 36.1835C199.274 36.1835 195.049 35.6515 194.626 31.2212H196.069C196.422 33.9506 198.745 34.8016 201.175 34.8016C203.992 34.8016 206.245 33.9506 206.245 31.2927C206.245 25.4448 195.295 28.9537 195.295 22.0417C195.295 18.8518 198.393 17.5044 201.28 17.5044C203.358 17.5044 207.196 18.0364 207.477 22.2893L206.104 22.4667H206.103Z" fill="white"/>
<path d="M46.4547 19.0446C46.2656 18.8696 46.0208 18.7744 45.7642 18.7732C45.3149 17.8841 43.8582 15.2785 41.2521 13.017C38.3481 10.4912 33.4245 7.96659 26.4766 10.2769C26.4069 10.3007 26.3383 10.3234 26.2662 10.3484C25.7554 10.5269 25.2564 10.7364 24.7704 10.9733C24.7704 10.9602 24.7728 10.9459 24.7728 10.9328C24.9892 8.2713 24.5552 6.43112 23.4485 5.3063C21.8972 3.73036 19.2143 3.78273 16.5988 3.97318C11.8147 4.32074 5.01581 4.51238 1.19542 2.1806C0.867892 1.97825 0.458776 2.04134 0.204557 2.32582C-0.0532096 2.61149 -0.0709458 3.02571 0.16199 3.33518C1.15049 4.64688 2.98205 6.46326 6.08707 7.6583C9.5078 8.97714 13.7409 9.28067 18.6703 8.56054C18.7165 9.33066 18.9092 11.0221 19.705 12.8134C19.9012 13.2538 20.133 13.7026 20.412 14.1442C20.5409 14.3513 20.6816 14.5572 20.8318 14.7608C21.1345 15.1702 21.475 15.5654 21.8664 15.9427C21.9161 15.9891 21.9634 16.0344 22.013 16.0808C23.8789 17.796 26.3962 18.6613 29.5166 18.6613C30.1067 18.6613 30.7192 18.628 31.3517 18.5685L31.6757 18.5352L31.6852 18.2114C31.697 17.8876 31.392 17.8365 31.2761 17.8174C25.8819 16.9306 24.8544 13.7704 24.7574 11.8005C25.3238 11.5077 25.9055 11.2554 26.5074 11.0435C26.5724 11.0197 26.6398 10.9971 26.7037 10.9733C28.4631 10.3912 30.1729 10.0984 31.8188 10.0984C32.9078 10.0984 33.9672 10.2246 34.9948 10.4829C37.0569 10.9994 38.9937 12.0326 40.7531 13.5562C43.0222 15.5202 44.4115 17.8115 44.9661 18.8399L33.3571 19.8778C33.0331 19.9064 32.7293 20.0528 32.5034 20.2873L24.1 29.0525C24.0089 29.1501 23.8954 29.2216 23.7725 29.2656L14.7885 32.4187C14.8831 29.9143 15.401 23.9319 18.0886 18.6613C18.2872 18.2709 18.4977 17.8936 18.7224 17.5258C18.8784 17.5127 19.0345 17.4972 19.1942 17.4794C19.5099 17.446 19.8303 17.4091 20.1519 17.3651C20.5705 17.3068 20.9926 17.2413 21.4206 17.1651L22.2341 17.0235L21.5826 16.5129C21.5129 16.4581 21.4455 16.4045 21.3781 16.3462C21.0044 16.0379 20.6556 15.688 20.3352 15.3059C20.1756 15.1155 20.023 14.9179 19.88 14.7119C19.7759 14.5667 19.6778 14.4168 19.5832 14.2632L19.4614 14.0668L19.2355 14.0906C18.856 14.1311 18.0188 14.2037 16.9192 14.2346C14.1902 14.3049 9.82705 14.093 6.75277 12.3683C6.40751 12.1743 5.99485 12.2552 5.75009 12.5659C5.50533 12.8741 5.51833 13.2931 5.78319 13.5859C7.1075 15.0583 8.8492 16.1486 10.9634 16.8295C12.6116 17.3615 14.4574 17.6246 16.4852 17.6246C16.9263 17.6246 17.3756 17.6127 17.832 17.5853C17.6948 17.8281 17.5636 18.0721 17.4347 18.3221C14.5827 23.9236 14.1157 30.2916 14.0459 32.6758L14.0022 32.6912C13.6262 32.8234 13.4181 33.2126 13.5186 33.6006L13.8343 34.8445C13.8863 35.0468 14.0211 35.223 14.202 35.3242C14.3155 35.386 14.4432 35.417 14.5697 35.417C14.6466 35.417 14.7258 35.4051 14.8015 35.3801L19.0818 33.9851C18.8678 35.5432 19.0333 37.1382 19.5891 38.657C20.6131 41.4648 22.8064 43.7228 25.7625 45.0167L34.4449 48.8101C34.6412 48.8958 34.8493 48.9387 35.0539 48.9387C35.4263 48.9387 35.7882 48.7994 36.0637 48.5328C36.4302 48.1793 36.5473 47.671 36.3699 47.208L34.1269 41.3113L39.1533 41.1304C39.8285 41.1066 40.441 40.8066 40.8359 40.3055C41.1823 39.8675 41.3183 39.3319 41.2131 38.7974L40.9707 37.5357C40.9246 37.2988 40.9742 37.0501 41.109 36.837L41.4247 36.3442L41.4378 36.2835C41.5513 35.8217 41.3148 35.348 40.8655 35.1313L40.5474 34.9778L41.42 34.8826C41.7416 34.8492 42.0313 34.6862 42.2146 34.4386C42.3801 34.2112 42.4416 33.9363 42.3896 33.6649L42.1389 32.402L43.8191 32.0223C44.1313 31.9509 44.3973 31.7569 44.5475 31.4902C44.6858 31.2462 44.7154 30.9665 44.6303 30.7011L43.196 26.2292C43.0009 25.6233 42.9643 24.9782 43.092 24.3604L43.6063 21.8442L45.8304 21.6716C46.3601 21.6311 46.7764 21.1788 46.7764 20.6432V19.8016C46.7764 19.5124 46.6534 19.235 46.4429 19.041L46.4547 19.0446ZM28.8143 17.9067C26.2106 17.7865 24.0976 16.9949 22.5132 15.5392C22.4884 15.5154 22.4635 15.4952 22.4375 15.469C22.0249 15.0833 21.6689 14.6655 21.3603 14.2335C21.2137 14.0299 21.0789 13.8204 20.9512 13.6109C20.7467 13.2717 20.5717 12.9277 20.4168 12.5861C19.3928 10.3186 19.3857 8.16775 19.3857 8.1368L19.3892 7.70473L18.9648 7.77019C14.1062 8.5284 5.27712 8.90097 0.743739 2.88644C0.730732 2.87097 0.715361 2.84954 0.746103 2.81622C0.776846 2.7817 0.800494 2.79479 0.815866 2.80669C4.81361 5.24916 11.7674 5.05872 16.6508 4.70401C19.6364 4.48619 21.7269 4.59927 22.9306 5.82169C23.8765 6.78344 24.2431 8.43556 24.0444 10.8721C24.0314 11.0387 24.0231 11.2018 24.0196 11.3613C24.0113 11.6481 24.022 11.9255 24.0444 12.1933C24.3223 15.4975 26.764 17.1199 28.8131 17.9055L28.8143 17.9067ZM11.1939 16.1296C9.20274 15.4892 7.56628 14.4667 6.33065 13.0908C6.31528 13.0753 6.29991 13.0574 6.3271 13.0229C6.34248 13.0039 6.35785 12.9979 6.36967 12.9979C6.38268 12.9979 6.3945 13.0039 6.40278 13.0098C9.69817 14.8572 14.3474 15.0476 17.1438 14.9619C17.9952 14.9369 18.6739 14.8845 19.0925 14.8453C19.1906 14.9964 19.2935 15.1464 19.4011 15.2892C19.5501 15.4952 19.7061 15.6904 19.8669 15.8796C20.0751 16.1224 20.295 16.3534 20.5256 16.5688C20.0881 16.6343 19.6577 16.6914 19.2344 16.7354C19.0333 16.7592 18.8359 16.7783 18.6384 16.7961C18.5261 16.8057 18.4149 16.8152 18.3014 16.8235C15.6268 17.0235 13.2442 16.7902 11.1927 16.1308L11.1939 16.1296ZM20.0195 30.951L20.0467 30.9641L20.0065 30.9772C20.01 30.9677 20.0159 30.9594 20.0195 30.9498V30.951ZM43.9457 30.932C43.9729 31.0177 43.9492 31.0867 43.9244 31.132C43.8747 31.2177 43.7813 31.2807 43.6678 31.3081L41.2935 31.8473L41.6825 33.8125C41.6979 33.8982 41.6648 33.9637 41.6364 34.0065C41.5749 34.0898 41.472 34.1446 41.3526 34.1565L39.67 34.3386C39.4371 34.3636 39.2562 34.5302 39.2172 34.7552C39.1805 34.9742 39.2928 35.1897 39.4962 35.2873L40.558 35.7991C40.6775 35.855 40.7472 35.9598 40.7425 36.0645L40.5013 36.4442C40.2648 36.8168 40.1797 37.2548 40.2601 37.6785L40.5025 38.9402C40.5639 39.2604 40.4812 39.583 40.2695 39.8496C40.0094 40.1817 39.5944 40.3817 39.1344 40.3972L33.084 40.615L35.6936 47.4734C35.7917 47.7317 35.6546 47.9162 35.5647 48.0031C35.3897 48.1721 35.0669 48.2781 34.7417 48.1364L26.0593 44.343C23.2877 43.1301 21.235 41.0209 20.2808 38.4058C19.7262 36.8846 19.5903 35.2861 19.8669 33.7316H19.8693L25.617 31.8569C25.8618 31.7771 26.0853 31.6355 26.265 31.4498L34.6531 22.6976C34.7595 22.5893 34.9002 22.5214 35.0515 22.5095L42.8578 21.906L42.386 24.2128C42.2359 24.9544 42.2784 25.7304 42.5114 26.4577L43.9457 30.9296V30.932ZM46.0586 20.6467C46.0586 20.8003 45.9392 20.93 45.7867 20.9419L43.7707 21.099L34.9971 21.7787C34.737 21.7977 34.4958 21.8953 34.29 22.0525C34.29 22.0548 34.2877 22.0548 34.2877 22.0548H34.2841C34.2297 22.0953 34.1777 22.1405 34.1304 22.1905L25.7412 30.9403C25.6442 31.0415 25.5248 31.1165 25.3947 31.1593L20.062 32.8972L19.2414 33.165H19.2391L14.5863 34.6826C14.5863 34.6826 14.5768 34.6862 14.565 34.6826C14.5555 34.6766 14.5532 34.6671 14.552 34.6635L14.3876 34.0255L14.2351 33.4221C14.2316 33.409 14.2386 33.3935 14.2528 33.3887L15.7616 32.8591L19.796 31.4426H19.7984L20.5078 31.1939H20.5102L24.022 29.9595C24.0763 29.9405 24.1284 29.9191 24.178 29.8941C24.3495 29.8131 24.5032 29.7 24.6344 29.5644L25.9588 28.1824L31.8578 22.0286L32.4277 21.4335L32.4301 21.4311L33.0367 20.7967C33.1407 20.6884 33.2791 20.6217 33.4281 20.6086L39.6819 20.0504L45.7382 19.5112C45.7985 19.5052 45.8576 19.5171 45.9096 19.5481C45.9286 19.5576 45.9463 19.5719 45.964 19.5874C46.0255 19.6457 46.061 19.7219 46.061 19.8064V20.6479L46.0586 20.6467Z" fill="white"/>
<path d="M19.0073 13.1693L18.9423 13.0217C18.4339 11.8695 18.1962 10.7578 18.0886 10.0246L18.0342 9.65799L17.67 9.71631C16.0939 9.97222 10.4632 10.5733 4.16093 7.67854C3.82394 7.5238 3.44202 7.61664 3.21499 7.90946C2.98797 8.20227 2.98915 8.59863 3.22091 8.89263C4.71666 10.7864 8.20715 13.7038 15.5003 13.7038C16.3504 13.7038 17.2526 13.6633 18.2068 13.5776C18.3511 13.5657 18.4977 13.5502 18.6443 13.5371L19.1469 13.4848L19.0085 13.1681L19.0073 13.1693ZM3.7932 8.43318C3.78137 8.42009 3.76245 8.39866 3.79083 8.36296C3.80384 8.3451 3.81803 8.33915 3.82985 8.33915C3.83931 8.33915 3.84877 8.34272 3.85823 8.34748C9.83534 11.0923 15.1125 10.8197 17.4253 10.4971C17.5388 11.1411 17.7374 11.9719 18.0791 12.8503C9.30443 13.6181 5.36817 10.4293 3.7932 8.43199V8.43318Z" fill="white"/>
<path d="M20.0459 30.9639L20.0065 30.9767C20.0099 30.9673 20.0157 30.9592 20.0192 30.9498L20.0459 30.9627V30.9639Z" fill="white"/>
<path d="M20.0192 30.951C20.0157 30.9604 20.0099 30.9685 20.0065 30.9779L20.0459 30.965L20.0192 30.9522V30.951Z" fill="white"/>
<path d="M49.568 51.0002H11.1194C9.76676 51.0002 8.66711 49.8921 8.66711 48.5304V18.484C8.66711 18.2804 8.83029 18.1162 9.03248 18.1162C9.23467 18.1162 9.39785 18.2804 9.39785 18.484V48.5304C9.39785 49.4874 10.17 50.2646 11.1194 50.2646H49.5692C50.5199 50.2646 51.292 49.4862 51.292 48.5304V2.46985C51.292 1.51286 50.5187 0.735598 49.5692 0.735598H11.1194C10.17 0.735598 9.39785 1.51405 9.39785 2.46985C9.39785 2.67339 9.23467 2.83765 9.03248 2.83765C8.83029 2.83765 8.66711 2.67339 8.66711 2.46985C8.66711 1.10816 9.76794 0 11.1194 0H49.5692C50.9219 0 52.0227 1.10816 52.0227 2.46985V48.5304C52.0227 49.8921 50.9219 51.0002 49.5692 51.0002H49.568Z" fill="white"/>
<path d="M40.3476 4.82305C39.5896 4.53976 38.9949 3.93985 38.7135 3.17569L38.4285 2.39962L38.1435 3.17569C37.8621 3.93985 37.2662 4.53976 36.5071 4.82305L35.7361 5.1099L36.5071 5.39676C37.2662 5.68005 37.8621 6.27996 38.1435 7.04412L38.4285 7.82019L38.7135 7.04412C38.9949 6.27996 39.5908 5.68005 40.3476 5.39676L41.1209 5.1099L40.3476 4.82305ZM38.4273 6.23711C38.1483 5.77766 37.7628 5.39081 37.3052 5.1099C37.7616 4.829 38.1471 4.44215 38.4273 3.9827C38.7052 4.44215 39.0883 4.829 39.5471 5.1099C39.0883 5.39081 38.7052 5.77766 38.4273 6.23711Z" fill="white"/>
<path d="M48.4613 12.2207C47.7034 11.9398 47.1062 11.3375 46.8272 10.5733L46.5399 9.79726L46.2549 10.5733C45.9759 11.3375 45.3799 11.9398 44.6208 12.2207L43.8475 12.5075L44.6208 12.7944C45.3799 13.0777 45.9759 13.6776 46.2549 14.4418L46.5399 15.2178L46.8272 14.4418C47.1062 13.6776 47.7045 13.0777 48.4613 12.7944L49.2322 12.5075L48.4613 12.2207ZM46.5399 13.6347C46.262 13.1753 45.8789 12.7884 45.4225 12.5075C45.8789 12.2266 46.2632 11.8398 46.5399 11.3803C46.8213 11.8398 47.2044 12.2266 47.662 12.5075C47.2056 12.7884 46.8213 13.1753 46.5399 13.6347Z" fill="white"/>
<path d="M17.5057 45.1916C16.419 44.7858 15.5653 43.9287 15.1621 42.8349L14.8192 41.9017L14.4775 42.8349C14.0743 43.9287 13.2206 44.7869 12.1339 45.1916L11.2093 45.5368L12.1339 45.882C13.2206 46.2855 14.0743 47.1449 14.4775 48.2388L14.8192 49.172L15.1621 48.2388C15.5653 47.1449 16.419 46.2855 17.5057 45.882L18.4303 45.5368L17.5057 45.1916ZM14.8192 47.252C14.4101 46.5402 13.8224 45.9499 13.1153 45.5368C13.8224 45.1238 14.4101 44.5334 14.8192 43.8216C15.2295 44.5334 15.8172 45.1238 16.5231 45.5368C15.8172 45.9499 15.2295 46.5402 14.8192 47.252Z" fill="white"/>
<path d="M48.4613 4.82305C47.7034 4.53976 47.1063 3.93985 46.8272 3.17569L46.5399 2.39962L46.2549 3.17569C45.9759 3.93985 45.3799 4.53976 44.6208 4.82305L43.8499 5.1099L44.6208 5.39676C45.3799 5.68005 45.9759 6.27996 46.2549 7.04412L46.5399 7.82019L46.8272 7.04412C47.1063 6.27996 47.7046 5.68005 48.4613 5.39676L49.2322 5.1099L48.4613 4.82305ZM46.5399 6.23711C46.262 5.77766 45.8789 5.39081 45.4225 5.1099C45.8789 4.829 46.2632 4.44215 46.5399 3.9827C46.8213 4.44215 47.2044 4.829 47.662 5.1099C47.2056 5.39081 46.8213 5.77766 46.5399 6.23711Z" fill="white"/>
</g>
<defs>
<clipPath id="clip0_36_79">
<rect width="207.688" height="51.0002" fill="white"/>
</clipPath>
</defs>
</svg>
