<svg width="62" height="60" viewBox="0 0 62 60" fill="none" xmlns="http://www.w3.org/2000/svg">
<g clip-path="url(#clip0_1382_1441)">
<path d="M55.3652 22.4038C55.1406 22.1983 54.8482 22.0867 54.5424 22.0845C54.0076 21.0393 52.2708 17.9732 49.1652 15.3126C45.7039 12.3405 39.8374 9.37163 31.556 12.0897C31.4737 12.1173 31.3903 12.1449 31.3058 12.1736C30.6976 12.3836 30.1027 12.63 29.5234 12.9084C29.5234 12.8929 29.5256 12.8763 29.5256 12.8609C29.7825 9.72961 29.2665 7.56513 27.9478 6.24147C26.0987 4.38857 22.9009 4.44934 19.7842 4.67363C14.0834 5.08244 5.97873 5.30784 1.42657 2.56439C1.03629 2.32684 0.549278 2.39977 0.245727 2.73565C-0.0622719 3.07154 -0.0822862 3.5599 0.195691 3.92231C1.37431 5.46473 3.55588 7.60159 7.25631 9.00812C11.3337 10.5605 16.3773 10.9163 22.2537 10.0699C22.3093 10.9759 22.5384 12.9669 23.4868 15.0729C23.7214 15.5911 23.9972 16.1181 24.3297 16.6385C24.4831 16.8827 24.651 17.1246 24.83 17.3644C25.1903 17.8461 25.5972 18.3113 26.0631 18.7544C26.1232 18.8096 26.1777 18.8615 26.2377 18.9168C28.4615 20.9343 31.4614 21.953 35.1797 21.953C35.8824 21.953 36.6129 21.9144 37.3668 21.8436L37.7526 21.805L37.7637 21.4238C37.7771 21.0426 37.4146 20.9829 37.2767 20.9608C30.8477 19.9178 29.6235 16.1999 29.5078 13.8829C30.1827 13.5382 30.8766 13.241 31.5938 12.9924C31.6716 12.9647 31.7528 12.9371 31.8284 12.9106C33.9254 12.2256 35.9636 11.8808 37.925 11.8808C39.2226 11.8808 40.4857 12.0289 41.711 12.3327C44.1683 12.9404 46.4778 14.1569 48.5748 15.9479C51.2779 18.2583 52.9346 20.9531 53.5962 22.163L39.7607 23.3839C39.3749 23.4181 39.0124 23.5894 38.7433 23.8656L28.7284 34.1775C28.6205 34.2913 28.4849 34.3764 28.3381 34.4283L17.6315 38.1375C17.7438 35.1907 18.362 28.1537 21.5643 21.9519C21.8012 21.4934 22.0514 21.0481 22.3204 20.6172C22.5061 20.6017 22.6929 20.583 22.8831 20.562C23.26 20.5233 23.6414 20.4802 24.025 20.4272C24.5231 20.3587 25.0268 20.2813 25.5361 20.1918L26.5057 20.025L25.7296 19.425C25.6473 19.3609 25.5661 19.2969 25.486 19.2284C25.0402 18.866 24.6243 18.4549 24.2429 18.0052C24.0528 17.7821 23.8704 17.5489 23.7003 17.307C23.5758 17.1357 23.459 16.96 23.3467 16.7799L23.2022 16.549L22.9331 16.5766C22.4806 16.6241 21.4832 16.7092 20.1722 16.7457C16.9199 16.8274 11.7195 16.5788 8.05577 14.5503C7.64436 14.3215 7.1529 14.4177 6.86158 14.7834C6.57026 15.1458 6.58583 15.6397 6.9005 15.9844C8.4783 17.7169 10.5553 18.9996 13.0749 19.8007C15.0386 20.4261 17.239 20.7365 19.6563 20.7365C20.1822 20.7365 20.7171 20.7233 21.2619 20.6912C21.0985 20.9763 20.9428 21.2636 20.7882 21.5586C17.3891 28.1481 16.8332 35.6393 16.7498 38.4446L16.6964 38.4634C16.2483 38.6192 16.0004 39.0777 16.1193 39.534L16.4963 40.9969C16.5585 41.2345 16.7186 41.4422 16.9355 41.5604C17.0711 41.6333 17.2223 41.6698 17.3747 41.6698C17.467 41.6698 17.5604 41.6565 17.6504 41.6267L22.7519 39.9859C22.4972 41.819 22.694 43.6951 23.3556 45.4828C24.5754 48.7853 27.1895 51.4426 30.7131 52.9651L41.0617 57.4278C41.2963 57.5283 41.5442 57.578 41.7877 57.578C42.2314 57.578 42.6628 57.4134 42.9908 57.1007C43.4278 56.6853 43.5679 56.0875 43.3555 55.5417L40.6814 48.6052L46.6723 48.3931C47.4763 48.3654 48.2068 48.0119 48.6771 47.423C49.0907 46.907 49.2509 46.2772 49.1274 45.6496L48.8383 44.1657C48.7827 43.8873 48.8428 43.5956 49.004 43.3437L49.381 42.7636L49.3965 42.6929C49.5322 42.1493 49.2497 41.5925 48.7138 41.3372L48.3346 41.1571L49.3754 41.0455C49.759 41.0069 50.1037 40.8146 50.3216 40.5229C50.5196 40.2555 50.5929 39.9318 50.5307 39.6125L50.2316 38.1264L52.2341 37.6789C52.6066 37.595 52.9235 37.3662 53.1025 37.0536C53.2682 36.7663 53.3027 36.437 53.2015 36.1244L51.4925 30.8629C51.2601 30.1502 51.2167 29.39 51.3679 28.6652L51.9817 25.7052L54.6325 25.5019C55.2641 25.4544 55.76 24.9219 55.76 24.2921V23.301C55.76 22.9607 55.6132 22.6347 55.363 22.406L55.3652 22.4038ZM34.3402 21.0669C31.2368 20.9255 28.7195 19.9941 26.8315 18.2826C26.8014 18.255 26.7714 18.2295 26.7414 18.2008C26.2499 17.7467 25.8252 17.2561 25.4571 16.7468C25.2826 16.507 25.1213 16.2606 24.9701 16.0142C24.7266 15.6143 24.5176 15.211 24.3341 14.8088C23.1143 12.1405 23.1054 9.61139 23.1054 9.57493L23.1099 9.06557L22.6051 9.14292C16.8143 10.0357 6.29117 10.4732 0.889522 3.39748C0.873955 3.3787 0.855052 3.35439 0.891745 3.31572C0.928438 3.27484 0.956236 3.29031 0.974027 3.30467C5.73855 6.17849 14.0256 5.9542 19.8464 5.53655C23.4046 5.28132 25.8963 5.4128 27.3307 6.85137C28.4582 7.98388 28.8952 9.92628 28.6583 12.7924C28.6428 12.989 28.6327 13.1802 28.6283 13.368C28.6194 13.7061 28.6305 14.0321 28.6583 14.347C28.9886 18.234 31.8995 20.1421 34.3413 21.0669H34.3402ZM13.3407 18.9764C10.9679 18.2229 9.01757 17.0208 7.5454 15.4021C7.5265 15.3844 7.50871 15.3635 7.54096 15.3226C7.55986 15.2994 7.57765 15.2927 7.59099 15.2927C7.60656 15.2927 7.62101 15.2994 7.62991 15.306C11.5583 17.4793 17.0978 17.7025 20.4313 17.602C21.4465 17.5721 22.2548 17.5103 22.7541 17.465C22.8708 17.6428 22.9931 17.8185 23.1221 17.9876C23.2989 18.2295 23.4846 18.4605 23.6781 18.6814C23.926 18.9665 24.1884 19.2383 24.4642 19.4913C23.9427 19.5687 23.4301 19.635 22.9253 19.688C22.6863 19.7156 22.4494 19.7377 22.2159 19.7587C22.0825 19.7698 21.9491 19.7819 21.8134 19.7908C18.6256 20.0261 15.7858 19.7521 13.3418 18.9753L13.3407 18.9764ZM23.8593 36.4116L23.8916 36.4271L23.8438 36.4426C23.8482 36.4315 23.8549 36.4216 23.8593 36.4105V36.4116ZM52.3742 36.3895C52.4065 36.4901 52.3787 36.5718 52.3486 36.6249C52.2886 36.7254 52.1785 36.8005 52.0429 36.8326L49.2131 37.4668L49.6767 39.7793C49.6956 39.8799 49.6556 39.9572 49.6211 40.008C49.5477 40.1064 49.4254 40.1705 49.2831 40.1837L47.2783 40.3981C47.0004 40.4279 46.7846 40.6246 46.7391 40.8886C46.6957 41.1461 46.8291 41.4002 47.0726 41.514L48.338 42.1162C48.4803 42.1825 48.5626 42.3051 48.5581 42.4289L48.2713 42.8763C47.9888 43.315 47.8877 43.831 47.9844 44.3282L48.2735 45.812C48.3469 46.1888 48.2479 46.5678 47.9955 46.8827C47.6853 47.2727 47.1916 47.508 46.6423 47.5268L39.4316 47.7821L42.5416 55.8511C42.6584 56.1549 42.496 56.3715 42.3882 56.4742C42.1791 56.6731 41.7955 56.798 41.4075 56.6322L31.0589 52.1696C27.7554 50.7432 25.3092 48.2616 24.1729 45.1856C23.5113 43.3956 23.3501 41.5151 23.6792 39.6865H23.6814L30.5308 37.4812C30.8221 37.3872 31.0889 37.2204 31.3024 37.0016L41.2996 26.7052C41.4264 26.577 41.5931 26.4974 41.7755 26.4842L51.0788 25.7748L50.5162 28.4885C50.3372 29.3602 50.3872 30.274 50.6652 31.1291L52.3742 36.3906V36.3895ZM54.8916 24.2899C54.8916 24.47 54.7492 24.6235 54.568 24.6368L52.1652 24.8213L41.7088 25.6202C41.3986 25.6434 41.1117 25.7572 40.866 25.9417C40.866 25.9439 40.8637 25.9439 40.8637 25.9439H40.8593C40.7948 25.9914 40.7325 26.0444 40.6758 26.1041L30.6764 36.3984C30.5619 36.5166 30.4196 36.6061 30.2628 36.6558L23.9071 38.701L22.9287 39.0159H22.9264L17.3813 40.8003C17.3813 40.8003 17.3702 40.8047 17.3558 40.8003C17.3447 40.7936 17.3424 40.7815 17.3402 40.7771L17.1445 40.0257L16.9633 39.3164C16.9588 39.3009 16.9677 39.2821 16.9844 39.2777L18.7835 38.6546L23.5914 36.9884H23.5936L24.4386 36.6967H24.4408L28.6261 35.2449C28.6906 35.2217 28.7528 35.1973 28.8118 35.1675C29.0164 35.0714 29.1998 34.9388 29.3566 34.7797L30.9344 33.1544L37.9661 25.9141L38.6455 25.2136L38.6477 25.2113L39.3716 24.4644C39.4961 24.3363 39.6607 24.2589 39.8374 24.2435L47.2917 23.5861L54.5091 22.9518C54.5802 22.9452 54.6514 22.9585 54.7137 22.9949C54.737 23.006 54.757 23.0226 54.7782 23.0402C54.8515 23.1087 54.8927 23.1982 54.8927 23.2977V24.2888L54.8916 24.2899Z" fill="#2C3836"/>
<path d="M22.6529 15.4927L22.5751 15.3193C21.9691 13.9636 21.6867 12.6554 21.5577 11.7925L21.4932 11.3616L21.0595 11.4301C19.1804 11.7317 12.4712 12.4388 4.96023 9.03355C4.55772 8.85124 4.10295 8.96063 3.83275 9.30535C3.56256 9.65008 3.56367 10.1152 3.83942 10.4622C5.62181 12.6896 9.78146 16.1225 18.4732 16.1225C19.4862 16.1225 20.5614 16.075 21.6978 15.9745C21.8701 15.9612 22.0447 15.9424 22.2193 15.927L22.8186 15.8651L22.6529 15.4927ZM4.52102 9.92078C4.50768 9.90531 4.48433 9.87989 4.5188 9.83901C4.53437 9.81802 4.55105 9.81139 4.56439 9.81139C4.57551 9.81139 4.58774 9.81581 4.59886 9.82023C11.7217 13.0498 18.0107 12.7283 20.7671 12.3493C20.9028 13.1073 21.1396 14.084 21.5455 15.1182C11.0868 16.022 6.39681 12.2698 4.51991 9.92078H4.52102Z" fill="#2C3836"/>
<path d="M23.8916 36.4282L23.8438 36.4437C23.8482 36.4326 23.8549 36.4227 23.8593 36.4116L23.8916 36.4271V36.4282Z" fill="#2C3836"/>
<path d="M23.8593 36.4116C23.8549 36.4227 23.8482 36.4326 23.8438 36.4437L23.8916 36.4282L23.8593 36.4127V36.4116Z" fill="#2C3836"/>
<path d="M59.0757 60H13.2517C11.6394 60 10.3285 58.6962 10.3285 57.0941V21.7465C10.3285 21.5078 10.5231 21.3133 10.7644 21.3133C11.0057 21.3133 11.2002 21.5067 11.2002 21.7465V57.0941C11.2002 58.22 12.1209 59.1349 13.2528 59.1349H59.0768C60.2098 59.1349 61.1305 58.2189 61.1305 57.0941V2.90586C61.1305 1.78108 60.2087 0.86513 59.0768 0.86513H13.2517C12.1198 0.86513 11.1991 1.78108 11.1991 2.90586C11.1991 3.14452 11.0045 3.33898 10.7633 3.33898C10.522 3.33898 10.3274 3.14562 10.3274 2.90586C10.3274 1.30377 11.6383 0 13.2506 0H59.0746C60.6868 0 61.9989 1.30377 61.9989 2.90586V57.093C61.9989 58.6951 60.6868 59.9989 59.0746 59.9989L59.0757 60Z" fill="#2C3836"/>
<path d="M48.0856 5.67362C47.1827 5.33994 46.4733 4.63502 46.1375 3.73564L45.7973 2.823L45.457 3.73564C45.1212 4.63502 44.4118 5.33994 43.5068 5.67362L42.5883 6.01171L43.5068 6.34981C44.4118 6.68349 45.1212 7.38841 45.457 8.28779L45.7973 9.20043L46.1375 8.28779C46.4733 7.38841 47.1827 6.68349 48.0856 6.34981L49.0063 6.01171L48.0856 5.67362ZM45.7984 7.33758C45.4648 6.79619 45.0056 6.34208 44.4619 6.01171C45.0067 5.68025 45.4659 5.22614 45.7984 4.68584C46.1286 5.22724 46.5867 5.68135 47.1327 6.01171C46.5856 6.34318 46.1286 6.79729 45.7984 7.33758Z" fill="#2C3836"/>
<path d="M57.7558 14.3769C56.853 14.0454 56.1414 13.3383 55.8078 12.4389L55.4653 11.5262L55.1251 12.4389C54.7915 13.3383 54.0821 14.0454 53.177 14.3769L52.2563 14.715L53.177 15.0531C54.0821 15.3867 54.7915 16.0917 55.1251 16.991L55.4653 17.9037L55.8078 16.991C56.1414 16.0917 56.853 15.3867 57.7558 15.0531L58.6743 14.715L57.7558 14.3769ZM55.4664 16.0408C55.1362 15.4994 54.6781 15.0453 54.1344 14.715C54.6792 14.3835 55.1362 13.9294 55.4664 13.3891C55.8022 13.9305 56.2592 14.3846 56.8029 14.715C56.2581 15.0464 55.8011 15.5005 55.4664 16.0408Z" fill="#2C3836"/>
<path d="M20.8638 53.1662C19.5685 52.6889 18.5511 51.6801 18.0707 50.3929L17.6615 49.2947L17.2546 50.3929C16.7742 51.6801 15.7568 52.6889 14.4615 53.1662L13.3585 53.5728L14.4615 53.9794C15.7568 54.4545 16.7742 55.4655 17.2546 56.7527L17.6615 57.851L18.0707 56.7527C18.5511 55.4655 19.5685 54.4545 20.8638 53.9794L21.9669 53.5728L20.8638 53.1662ZM17.6615 55.5903C17.1745 54.7528 16.474 54.059 15.6312 53.5728C16.474 53.0867 17.1745 52.3928 17.6615 51.5553C18.1508 52.3928 18.8513 53.0867 19.6919 53.5728C18.8513 54.059 18.1508 54.7528 17.6615 55.5903Z" fill="#2C3836"/>
<path d="M57.7559 5.67362C56.853 5.33994 56.1414 4.63502 55.8078 3.73564L55.4653 2.823L55.1251 3.73564C54.7915 4.63502 54.0821 5.33994 53.177 5.67362L52.2586 6.01171L53.177 6.34981C54.0821 6.68349 54.7915 7.38841 55.1251 8.28779L55.4653 9.20043L55.8078 8.28779C56.1414 7.38841 56.853 6.68349 57.7559 6.34981L58.6743 6.01171L57.7559 5.67362ZM55.4664 7.33758C55.1362 6.79619 54.6781 6.34208 54.1344 6.01171C54.6792 5.68025 55.1362 5.22614 55.4664 4.68584C55.8022 5.22724 56.2592 5.68135 56.8029 6.01171C56.2581 6.34318 55.8011 6.79729 55.4664 7.33758Z" fill="#2C3836"/>
</g>
<defs>
<clipPath id="clip0_1382_1441">
<rect width="62" height="60" fill="white"/>
</clipPath>
</defs>
</svg>
