<svg width="208" height="51" viewBox="0 0 208 51" fill="none" xmlns="http://www.w3.org/2000/svg">
<g clip-path="url(#clip0_1382_1419)">
<path d="M86.1496 35.7584V23.1759C86.1496 20.6596 84.5297 18.8516 81.6079 18.8516C78.4745 18.8516 76.2918 21.3678 76.2918 24.8768V35.7584H74.7783V23.1759C74.7783 20.6596 73.1584 18.8516 70.2366 18.8516C67.1032 18.8516 64.9205 21.3678 64.9205 24.8768V35.7584H63.407V17.8946H64.71V21.5452C65.9421 18.6028 68.0196 17.5042 70.414 17.5042C72.9491 17.5042 75.4132 18.7444 76.0825 21.4738C77.2448 18.7444 79.2514 17.5042 81.7864 17.5042C84.8146 17.5042 87.6666 19.2408 87.6666 23.2104V35.7572H86.1531L86.1496 35.7584Z" fill="#2C3836"/>
<path d="M106.992 31.3269C106.112 34.411 103.859 36.1821 100.126 36.1821C95.091 36.1821 92.1326 32.7088 92.1326 26.8598C92.1326 21.0107 95.3014 17.5029 100.126 17.5029C104.95 17.5029 107.238 20.9405 107.238 26.0801L107.167 27.0371H93.717C93.7525 31.928 95.9707 34.799 100.126 34.799C103.259 34.799 104.949 33.5944 105.618 31.3257H106.991L106.992 31.3269ZM105.655 25.7278C105.584 21.4749 104.175 18.8515 100.127 18.8515C96.0783 18.8515 94.0706 21.3678 93.7537 25.7278H105.655Z" fill="#2C3836"/>
<path d="M111.851 35.7584V17.8946H113.154V21.8999C114.175 18.604 116.182 17.5054 117.802 17.5054C118.19 17.5054 118.788 17.5411 119.491 17.7529V19.0646H117.871C115.372 19.0646 113.364 21.475 113.364 25.4446V35.7584H111.851Z" fill="#2C3836"/>
<path d="M135.265 31.2924C134.385 34.411 132.131 36.1833 128.505 36.1833C123.399 36.1833 120.442 32.7101 120.442 26.861C120.442 21.0119 123.611 17.5042 128.505 17.5042C132.131 17.5042 134.42 19.1706 135.23 22.2534L133.822 22.4308C133.153 20.1264 131.463 18.8504 128.506 18.8504C124.21 18.8504 122.028 21.7928 122.028 26.861C122.028 31.9292 124.246 34.8002 128.506 34.8002C131.534 34.8002 133.224 33.5956 133.893 31.2913H135.266L135.265 31.2924Z" fill="#2C3836"/>
<path d="M151.883 35.7584V32.1078C150.511 34.943 148.257 36.1833 145.51 36.1833C142.13 36.1833 139.313 34.4467 139.313 30.2997V17.8945H140.827V30.3354C140.827 33.029 142.376 34.8014 145.685 34.8014C149.242 34.8014 151.671 32.2851 151.671 28.7761V17.8945H153.184V35.7584H151.881H151.883Z" fill="#2C3836"/>
<path d="M159.03 35.7584V17.8946H160.333V21.8999C161.355 18.604 163.361 17.5054 164.981 17.5054C165.369 17.5054 165.967 17.5411 166.671 17.7529V19.0646H165.051C162.551 19.0646 160.544 21.475 160.544 25.4446V35.7584H159.03Z" fill="#2C3836"/>
<path d="M169.31 13.6762V11.1599H171.035V13.6762H169.31ZM169.416 35.7584V17.8946H170.93V35.7584H169.416Z" fill="#2C3836"/>
<path d="M189.344 35.7584V32.1078C187.971 34.943 185.717 36.1833 182.97 36.1833C179.59 36.1833 176.773 34.4467 176.773 30.2997V17.8945H178.287V30.3354C178.287 33.029 179.836 34.8014 183.145 34.8014C186.702 34.8014 189.131 32.2851 189.131 28.7761V17.8945H190.644V35.7584H189.341H189.344Z" fill="#2C3836"/>
<path d="M206.103 22.4665C205.822 19.2051 203.356 18.7444 201.28 18.7444C198.991 18.7444 196.738 19.4884 196.738 21.9344C196.738 27.6049 207.689 24.0614 207.689 31.2567C207.689 34.1979 205.294 36.1833 201.175 36.1833C199.274 36.1833 195.049 35.6513 194.625 31.221H196.069C196.422 33.9504 198.745 34.8014 201.175 34.8014C203.991 34.8014 206.245 33.9504 206.245 31.2924C206.245 25.4446 195.295 28.9535 195.295 22.0415C195.295 18.8516 198.393 17.5042 201.28 17.5042C203.358 17.5042 207.196 18.0362 207.477 22.2891L206.104 22.4665H206.103Z" fill="#2C3836"/>
<path d="M46.4547 19.0444C46.2655 18.8694 46.0208 18.7742 45.7642 18.773C45.3149 17.8839 43.8581 15.2783 41.2521 13.0168C38.3481 10.491 33.4245 7.96638 26.4766 10.2767C26.4069 10.3005 26.3383 10.3231 26.2661 10.3481C25.7553 10.5267 25.2564 10.7362 24.7704 10.973C24.7704 10.9599 24.7728 10.9457 24.7728 10.9326C24.9891 8.27109 24.5552 6.43091 23.4485 5.30608C21.8971 3.73014 19.2142 3.78252 16.5987 3.97296C11.8147 4.32053 5.01578 4.51216 1.19539 2.18039C0.867862 1.97804 0.458746 2.04113 0.204527 2.3256C-0.0532401 2.61127 -0.0709763 3.02549 0.16196 3.33497C1.15046 4.64666 2.98202 6.46304 6.08704 7.65809C9.50777 8.97693 13.7408 9.28045 18.6703 8.56033C18.7164 9.33044 18.9092 11.0218 19.7049 12.8132C19.9012 13.2536 20.133 13.7024 20.412 14.144C20.5409 14.3511 20.6816 14.557 20.8318 14.7605C21.1345 15.17 21.475 15.5652 21.8664 15.9425C21.916 15.9889 21.9633 16.0341 22.013 16.0806C23.8789 17.7958 26.3962 18.6611 29.5166 18.6611C30.1066 18.6611 30.7191 18.6278 31.3517 18.5683L31.6757 18.5349L31.6852 18.2112C31.697 17.8874 31.3919 17.8362 31.276 17.8172C25.8819 16.9304 24.8543 13.7702 24.7574 11.8003C25.3238 11.5075 25.9055 11.2551 26.5074 11.0433C26.5724 11.0195 26.6398 10.9968 26.7036 10.973C28.4631 10.391 30.1728 10.0982 31.8188 10.0982C32.9078 10.0982 33.9672 10.2244 34.9947 10.4826C37.0569 10.9992 38.9937 12.0324 40.7531 13.556C43.0222 15.5199 44.4115 17.8112 44.966 18.8397L33.3571 19.8776C33.0331 19.9061 32.7292 20.0526 32.5034 20.287L24.1 29.0523C24.0089 29.1499 23.8954 29.2213 23.7724 29.2654L14.7884 32.4184C14.883 29.9141 15.4009 23.9317 18.0886 18.6611C18.2872 18.2707 18.4977 17.8934 18.7223 17.5256C18.8784 17.5125 19.0345 17.497 19.1941 17.4792C19.5098 17.4458 19.8303 17.4089 20.1519 17.3649C20.5705 17.3066 20.9926 17.2411 21.4206 17.1649L22.2341 17.0233L21.5826 16.5126C21.5128 16.4579 21.4454 16.4043 21.378 16.346C21.0044 16.0377 20.6556 15.6878 20.3352 15.3057C20.1755 15.1152 20.023 14.9177 19.8799 14.7117C19.7759 14.5665 19.6777 14.4165 19.5831 14.263L19.4613 14.0666L19.2355 14.0904C18.8559 14.1309 18.0188 14.2035 16.9192 14.2344C14.1901 14.3047 9.82702 14.0928 6.75274 12.3681C6.40748 12.174 5.99482 12.255 5.75006 12.5656C5.5053 12.8739 5.5183 13.2929 5.78316 13.5857C7.10747 15.0581 8.84917 16.1484 10.9633 16.8293C12.6116 17.3613 14.4574 17.6244 16.4852 17.6244C16.9262 17.6244 17.3756 17.6125 17.832 17.5851C17.6948 17.8279 17.5636 18.0719 17.4347 18.3219C14.5827 23.9234 14.1156 30.2914 14.0459 32.6756L14.0021 32.691C13.6261 32.8231 13.418 33.2124 13.5185 33.6004L13.8342 34.8443C13.8863 35.0466 14.0211 35.2228 14.202 35.3239C14.3155 35.3858 14.4432 35.4168 14.5697 35.4168C14.6466 35.4168 14.7258 35.4049 14.8014 35.3799L19.0818 33.9849C18.8678 35.543 19.0333 37.1379 19.589 38.6567C20.613 41.4646 22.8064 43.7226 25.7624 45.0165L34.4449 48.8099C34.6412 48.8956 34.8493 48.9384 35.0539 48.9384C35.4263 48.9384 35.7881 48.7992 36.0636 48.5326C36.4302 48.179 36.5472 47.6708 36.3699 47.2078L34.1268 41.3111L39.1533 41.1302C39.8285 41.1064 40.4409 40.8064 40.8359 40.3053C41.1823 39.8673 41.3183 39.3316 41.2131 38.7972L40.9707 37.5355C40.9246 37.2986 40.9742 37.0499 41.109 36.8368L41.4247 36.344L41.4377 36.2833C41.5512 35.8215 41.3147 35.3477 40.8654 35.1311L40.5474 34.9776L41.42 34.8823C41.7416 34.849 42.0313 34.6859 42.2146 34.4384C42.3801 34.211 42.4416 33.9361 42.3896 33.6647L42.1389 32.4018L43.8191 32.0221C44.1313 31.9507 44.3973 31.7567 44.5475 31.49C44.6858 31.246 44.7154 30.9663 44.6302 30.7009L43.196 26.229C43.0009 25.6231 42.9642 24.978 43.0919 24.3602L43.6063 21.8439L45.8304 21.6713C46.3601 21.6309 46.7763 21.1786 46.7763 20.6429V19.8014C46.7763 19.5122 46.6534 19.2348 46.4429 19.0408L46.4547 19.0444ZM28.8143 17.9065C26.2106 17.7862 24.0976 16.9947 22.5132 15.539C22.4883 15.5152 22.4635 15.4949 22.4375 15.4688C22.0248 15.0831 21.6689 14.6653 21.3603 14.2332C21.2137 14.0297 21.0789 13.8202 20.9512 13.6107C20.7466 13.2715 20.5716 12.9275 20.4167 12.5859C19.3928 10.3184 19.3857 8.16753 19.3857 8.13659L19.3892 7.70451L18.9647 7.76998C14.1062 8.52819 5.27709 8.90075 0.743708 2.88623C0.730701 2.87076 0.71533 2.84933 0.746073 2.816C0.776816 2.78148 0.800464 2.79458 0.815835 2.80648C4.81358 5.24895 11.7674 5.0585 16.6507 4.7038C19.6363 4.48598 21.7269 4.59905 22.9306 5.82148C23.8765 6.78323 24.243 8.43535 24.0444 10.8719C24.0314 11.0385 24.0231 11.2016 24.0196 11.3611C24.0113 11.6479 24.0219 11.9253 24.0444 12.1931C24.3223 15.4973 26.7639 17.1197 28.8131 17.9053L28.8143 17.9065ZM11.1939 16.1294C9.20271 15.489 7.56625 14.4665 6.33062 13.0906C6.31525 13.0751 6.29988 13.0572 6.32707 13.0227C6.34245 13.0037 6.35782 12.9977 6.36964 12.9977C6.38265 12.9977 6.39447 13.0037 6.40275 13.0096C9.69814 14.8569 14.3474 15.0474 17.1438 14.9617C17.9952 14.9367 18.6739 14.8843 19.0924 14.845C19.1906 14.9962 19.2934 15.1462 19.401 15.289C19.55 15.4949 19.7061 15.6902 19.8669 15.8794C20.075 16.1222 20.295 16.3531 20.5255 16.5686C20.088 16.634 19.6576 16.6912 19.2343 16.7352C19.0333 16.759 18.8358 16.7781 18.6384 16.7959C18.5261 16.8055 18.4149 16.815 18.3014 16.8233C15.6268 17.0233 13.2442 16.79 11.1927 16.1306L11.1939 16.1294ZM20.0194 30.9508L20.0466 30.9639L20.0064 30.977C20.01 30.9675 20.0159 30.9592 20.0194 30.9496V30.9508ZM43.9456 30.9318C43.9728 31.0175 43.9492 31.0865 43.9243 31.1317C43.8747 31.2174 43.7813 31.2805 43.6678 31.3079L41.2935 31.8471L41.6825 33.8123C41.6978 33.898 41.6647 33.9634 41.6364 34.0063C41.5749 34.0896 41.472 34.1444 41.3526 34.1563L39.67 34.3384C39.4371 34.3634 39.2562 34.53 39.2171 34.755C39.1805 34.974 39.2928 35.1894 39.4962 35.287L40.558 35.7989C40.6774 35.8548 40.7472 35.9596 40.7425 36.0643L40.5012 36.444C40.2648 36.8166 40.1796 37.2546 40.26 37.6783L40.5024 38.94C40.5639 39.2602 40.4811 39.5828 40.2695 39.8494C40.0094 40.1815 39.5943 40.3815 39.1344 40.3969L33.084 40.6148L35.6935 47.4732C35.7917 47.7315 35.6545 47.916 35.5647 48.0029C35.3897 48.1719 35.0669 48.2778 34.7417 48.1362L26.0592 44.3428C23.2876 43.1298 21.235 41.0207 20.2808 38.4056C19.7262 36.8844 19.5902 35.2859 19.8669 33.7313H19.8693L25.617 31.8566C25.8618 31.7769 26.0852 31.6352 26.265 31.4496L34.653 22.6974C34.7594 22.5891 34.9001 22.5212 35.0515 22.5093L42.8578 21.9058L42.386 24.2126C42.2359 24.9542 42.2784 25.7302 42.5114 26.4575L43.9456 30.9294V30.9318ZM46.0586 20.6465C46.0586 20.8001 45.9392 20.9298 45.7866 20.9417L43.7706 21.0988L34.9971 21.7785C34.737 21.7975 34.4958 21.8951 34.29 22.0522C34.29 22.0546 34.2877 22.0546 34.2877 22.0546H34.2841C34.2297 22.0951 34.1777 22.1403 34.1304 22.1903L25.7412 30.9401C25.6442 31.0413 25.5248 31.1163 25.3947 31.1591L20.062 32.8969L19.2414 33.1648H19.2391L14.5862 34.6824C14.5862 34.6824 14.5768 34.6859 14.565 34.6824C14.5555 34.6764 14.5531 34.6669 14.552 34.6633L14.3876 34.0253L14.2351 33.4219C14.2315 33.4088 14.2386 33.3933 14.2528 33.3885L15.7616 32.8589L19.796 31.4424H19.7983L20.5078 31.1936H20.5102L24.0219 29.9593C24.0763 29.9403 24.1283 29.9188 24.178 29.8939C24.3495 29.8129 24.5032 29.6998 24.6344 29.5641L25.9587 28.1822L31.8578 22.0284L32.4277 21.4333L32.4301 21.4309L33.0367 20.7965C33.1407 20.6882 33.2791 20.6215 33.428 20.6084L39.6818 20.0502L45.7382 19.511C45.7985 19.505 45.8576 19.5169 45.9096 19.5479C45.9285 19.5574 45.9463 19.5717 45.964 19.5872C46.0255 19.6455 46.061 19.7217 46.061 19.8062V20.6477L46.0586 20.6465Z" fill="#2C3836"/>
<path d="M19.0073 13.1691L18.9423 13.0215C18.4339 11.8693 18.1962 10.7576 18.0886 10.0244L18.0342 9.65775L17.67 9.71608C16.0939 9.97199 10.4632 10.5731 4.16093 7.6783C3.82394 7.52357 3.44202 7.61641 3.21499 7.90922C2.98797 8.20203 2.98915 8.5984 3.22091 8.8924C4.71666 10.7861 8.20715 13.7035 15.5003 13.7035C16.3504 13.7035 17.2526 13.6631 18.2068 13.5774C18.3511 13.5655 18.4977 13.55 18.6443 13.5369L19.1469 13.4845L19.0085 13.1679L19.0073 13.1691ZM3.7932 8.43295C3.78137 8.41985 3.76245 8.39843 3.79083 8.36272C3.80384 8.34486 3.81803 8.33891 3.82985 8.33891C3.83931 8.33891 3.84877 8.34248 3.85823 8.34724C9.83534 11.092 15.1125 10.8195 17.4253 10.4969C17.5388 11.1409 17.7374 11.9717 18.0791 12.8501C9.30443 13.6178 5.36817 10.4291 3.7932 8.43176V8.43295Z" fill="#2C3836"/>
<path d="M20.0458 30.9636L20.0063 30.9764C20.0098 30.9671 20.0156 30.9589 20.0191 30.9496L20.0458 30.9624V30.9636Z" fill="#2C3836"/>
<path d="M20.0191 30.9508C20.0156 30.9601 20.0098 30.9683 20.0063 30.9776L20.0458 30.9648L20.0191 30.952V30.9508Z" fill="#2C3836"/>
<path d="M49.5679 51H11.1193C9.76664 51 8.66699 49.8918 8.66699 48.5302V18.4837C8.66699 18.2802 8.83017 18.1159 9.03236 18.1159C9.23455 18.1159 9.39773 18.2802 9.39773 18.4837V48.5302C9.39773 49.4871 10.1698 50.2644 11.1193 50.2644H49.5691C50.5198 50.2644 51.2919 49.486 51.2919 48.5302V2.4696C51.2919 1.51261 50.5186 0.735353 49.5691 0.735353H11.1193C10.1698 0.735353 9.39773 1.5138 9.39773 2.4696C9.39773 2.67314 9.23455 2.8374 9.03236 2.8374C8.83017 2.8374 8.66699 2.67314 8.66699 2.4696C8.66699 1.10791 9.76782 -0.000244141 11.1193 -0.000244141H49.5691C50.9218 -0.000244141 52.0226 1.10791 52.0226 2.4696V48.5302C52.0226 49.8918 50.9218 51 49.5691 51H49.5679Z" fill="#2C3836"/>
<path d="M40.3475 4.82284C39.5896 4.53955 38.9948 3.93965 38.7134 3.17548L38.4284 2.39941L38.1435 3.17548C37.8621 3.93965 37.2661 4.53955 36.507 4.82284L35.7361 5.1097L36.507 5.39656C37.2661 5.67985 37.8621 6.27975 38.1435 7.04392L38.4284 7.81998L38.7134 7.04392C38.9948 6.27975 39.5908 5.67985 40.3475 5.39656L41.1208 5.1097L40.3475 4.82284ZM38.4273 6.2369C38.1482 5.77745 37.7627 5.39061 37.3051 5.1097C37.7616 4.82879 38.147 4.44195 38.4273 3.9825C38.7051 4.44195 39.0882 4.82879 39.547 5.1097C39.0882 5.39061 38.7051 5.77745 38.4273 6.2369Z" fill="#2C3836"/>
<path d="M48.4612 12.2204C47.7033 11.9395 47.1062 11.3372 46.8271 10.5731L46.5398 9.797L46.2548 10.5731C45.9758 11.3372 45.3798 11.9395 44.6207 12.2204L43.8474 12.5073L44.6207 12.7941C45.3798 13.0774 45.9758 13.6773 46.2548 14.4415L46.5398 15.2176L46.8271 14.4415C47.1062 13.6773 47.7045 13.0774 48.4612 12.7941L49.2321 12.5073L48.4612 12.2204ZM46.5398 13.6345C46.2619 13.175 45.8788 12.7882 45.4224 12.5073C45.8788 12.2264 46.2631 11.8395 46.5398 11.3801C46.8212 11.8395 47.2043 12.2264 47.6619 12.5073C47.2055 12.7882 46.8212 13.175 46.5398 13.6345Z" fill="#2C3836"/>
<path d="M17.5056 45.1914C16.419 44.7856 15.5652 43.9285 15.162 42.8347L14.8191 41.9015L14.4774 42.8347C14.0742 43.9285 13.2205 44.7867 12.1339 45.1914L11.2092 45.5366L12.1339 45.8818C13.2205 46.2853 14.0742 47.1447 14.4774 48.2386L14.8191 49.1718L15.162 48.2386C15.5652 47.1447 16.419 46.2853 17.5056 45.8818L18.4302 45.5366L17.5056 45.1914ZM14.8191 47.2518C14.41 46.54 13.8224 45.9497 13.1153 45.5366C13.8224 45.1236 14.41 44.5332 14.8191 43.8214C15.2294 44.5332 15.8171 45.1236 16.523 45.5366C15.8171 45.9497 15.2294 46.54 14.8191 47.2518Z" fill="#2C3836"/>
<path d="M48.4613 4.82284C47.7033 4.53955 47.1062 3.93965 46.8272 3.17548L46.5398 2.39941L46.2549 3.17548C45.9758 3.93965 45.3799 4.53955 44.6208 4.82284L43.8499 5.1097L44.6208 5.39656C45.3799 5.67985 45.9758 6.27975 46.2549 7.04392L46.5398 7.81998L46.8272 7.04392C47.1062 6.27975 47.7045 5.67985 48.4613 5.39656L49.2322 5.1097L48.4613 4.82284ZM46.5398 6.2369C46.262 5.77745 45.8789 5.39061 45.4225 5.1097C45.8789 4.82879 46.2632 4.44195 46.5398 3.9825C46.8213 4.44195 47.2044 4.82879 47.662 5.1097C47.2055 5.39061 46.8213 5.77745 46.5398 6.2369Z" fill="#2C3836"/>
</g>
<defs>
<clipPath id="clip0_1382_1419">
<rect width="207.688" height="51.0002" fill="white" transform="translate(0 -0.000244141)"/>
</clipPath>
</defs>
</svg>
