<svg width="22" height="13" viewBox="0 0 22 13" fill="none" xmlns="http://www.w3.org/2000/svg">
<path d="M11 9.0999C11.7293 9.0999 12.4288 8.82597 12.9445 8.33838C13.4603 7.85078 13.75 7.18947 13.75 6.4999C13.75 5.81034 13.4603 5.14902 12.9445 4.66142C12.4288 4.17383 11.7293 3.8999 11 3.8999C10.2707 3.8999 9.57118 4.17383 9.05546 4.66142C8.53973 5.14902 8.25 5.81034 8.25 6.4999C8.25 7.18947 8.53973 7.85078 9.05546 8.33838C9.57118 8.82597 10.2707 9.0999 11 9.0999Z" fill="#89BF15"/>
<path d="M0 1.3C0 0.955218 0.144866 0.624558 0.402728 0.380761C0.660591 0.136964 1.01033 0 1.375 0H20.625C20.9897 0 21.3394 0.136964 21.5973 0.380761C21.8551 0.624558 22 0.955218 22 1.3V11.7C22 12.0448 21.8551 12.3754 21.5973 12.6192C21.3394 12.863 20.9897 13 20.625 13H1.375C1.01033 13 0.660591 12.863 0.402728 12.6192C0.144866 12.3754 0 12.0448 0 11.7V1.3ZM4.125 1.3C4.125 1.98956 3.83527 2.65088 3.31954 3.13848C2.80382 3.62607 2.10435 3.9 1.375 3.9V9.1C2.10435 9.1 2.80382 9.37393 3.31954 9.86152C3.83527 10.3491 4.125 11.0104 4.125 11.7H17.875C17.875 11.0104 18.1647 10.3491 18.6805 9.86152C19.1962 9.37393 19.8957 9.1 20.625 9.1V3.9C19.8957 3.9 19.1962 3.62607 18.6805 3.13848C18.1647 2.65088 17.875 1.98956 17.875 1.3H4.125Z" fill="#89BF15"/>
</svg>
