<svg width="27" height="20" viewBox="0 0 27 20" fill="none" xmlns="http://www.w3.org/2000/svg">
<path d="M24.8484 0.550049H4.51406C3.33281 0.550049 2.3625 1.52036 2.3625 2.70161C2.3625 2.91255 2.53125 3.12349 2.78437 3.12349C2.99531 3.12349 3.20625 2.95474 3.20625 2.70161C3.20625 1.98442 3.79688 1.35161 4.55625 1.35161H24.8906C25.6078 1.35161 26.2406 1.94224 26.2406 2.70161V14.1766C26.2406 14.8938 25.65 15.5266 24.8906 15.5266H24.6797V13.5438C24.6797 13.3329 24.5109 13.1219 24.2578 13.1219H2.65781C2.44688 13.1219 2.23594 13.2907 2.23594 13.5438C2.23594 13.7547 2.40469 13.9657 2.65781 13.9657H23.8359V15.9063H0.801563V5.82349C0.801563 5.1063 1.39219 4.47349 2.15156 4.47349H22.4859C23.2031 4.47349 23.8359 5.06411 23.8359 5.82349V11.561C23.8359 11.7719 24.0047 11.9829 24.2578 11.9829C24.4688 11.9829 24.6797 11.8141 24.6797 11.561V5.82349C24.6797 4.64224 23.7094 3.67192 22.5281 3.67192H2.15156C0.970312 3.67192 0 4.64224 0 5.82349V17.2985C0 18.4797 0.970312 19.4501 2.15156 19.4501H22.4859C23.6672 19.4501 24.6375 18.4797 24.6375 17.2985V16.3282H24.8484C26.0297 16.3282 27 15.3579 27 14.1766V2.70161C27 1.52036 26.0297 0.550049 24.8484 0.550049ZM23.8359 17.2985C23.8359 18.0157 23.2453 18.6485 22.4859 18.6485H2.15156C1.43437 18.6485 0.801563 18.0579 0.801563 17.2985V16.75H23.7938L23.8359 17.2985Z" fill="white"/>
<path d="M21.6422 7.00476H17.6344C17.4235 7.00476 17.2125 7.17351 17.2125 7.42664C17.2125 7.67976 17.3813 7.84851 17.6344 7.84851H21.6422C21.8531 7.84851 22.0641 7.67976 22.0641 7.42664C22.0641 7.17351 21.8531 7.00476 21.6422 7.00476Z" fill="white"/>
<path d="M21.6422 9.53601H19.4063C19.1953 9.53601 18.9844 9.70476 18.9844 9.95789C18.9844 10.211 19.1531 10.3798 19.4063 10.3798H21.6422C21.8531 10.3798 22.0641 10.211 22.0641 9.95789C22.0641 9.70476 21.8531 9.53601 21.6422 9.53601Z" fill="white"/>
<path d="M7.25628 6.07666H3.62815C3.33284 6.07666 3.07971 6.32978 3.07971 6.6251V9.83135C3.07971 10.1267 3.33284 10.3798 3.62815 10.3798H7.25628C7.55159 10.3798 7.80471 10.1267 7.80471 9.83135V6.6251C7.80471 6.32978 7.55159 6.07666 7.25628 6.07666ZM6.96096 9.57822H3.88127V6.92041H6.96096V9.57822Z" fill="white"/>
</svg>
