<svg width="18" height="24" viewBox="0 0 18 24" fill="none" xmlns="http://www.w3.org/2000/svg">
<path d="M8.99997 13.788C9.80908 13.788 10.6 13.5481 11.2728 13.0986C11.9455 12.6491 12.4698 12.0101 12.7795 11.2626C13.0891 10.5151 13.1701 9.69257 13.0123 8.89901C12.8544 8.10545 12.4648 7.37652 11.8927 6.8044C11.3206 6.23228 10.5916 5.84266 9.79807 5.68481C9.00451 5.52696 8.18197 5.60797 7.43445 5.9176C6.68694 6.22724 6.04803 6.75158 5.59851 7.42432C5.149 8.09707 4.90907 8.888 4.90907 9.69711C4.91037 10.7817 5.34179 11.8215 6.1087 12.5884C6.87561 13.3553 7.9154 13.7867 8.99997 13.788ZM8.99997 7.24257C9.48544 7.24257 9.96 7.38652 10.3636 7.65623C10.7673 7.92594 11.0819 8.30929 11.2677 8.7578C11.4535 9.2063 11.5021 9.69983 11.4074 10.176C11.3126 10.6521 11.0789 11.0895 10.7356 11.4327C10.3923 11.776 9.95497 12.0098 9.47883 12.1045C9.0027 12.1992 8.50917 12.1506 8.06066 11.9648C7.61215 11.779 7.2288 11.4644 6.9591 11.0608C6.68939 10.6571 6.54543 10.1826 6.54543 9.69711C6.54608 9.04632 6.80489 8.42238 7.26507 7.9622C7.72524 7.50203 8.34919 7.24321 8.99997 7.24257Z" fill="#89BF15"/>
<path d="M9 23.6061L15.9022 15.466C15.9981 15.3438 16.093 15.2208 16.1869 15.097C17.3659 13.5439 18.0028 11.6469 18 9.69701C18 7.31007 17.0518 5.02088 15.364 3.33306C13.6761 1.64523 11.3869 0.697021 9 0.697021C6.61305 0.697021 4.32387 1.64523 2.63604 3.33306C0.948219 5.02088 9.53674e-06 7.31007 9.53674e-06 9.69701C-0.00284958 11.646 0.633797 13.5422 1.81228 15.0946L1.8131 15.097C1.8131 15.097 2.05855 15.4194 2.09537 15.4627L9 23.6061ZM14.8803 14.1111C14.8803 14.1111 14.6896 14.3631 14.6463 14.4171L9 21.0763L3.34637 14.4081C3.31037 14.3631 3.11892 14.1095 3.1181 14.1086C2.15498 12.8397 1.63448 11.29 1.63637 9.69701C1.63637 7.74406 2.41218 5.87109 3.79313 4.49014C5.17408 3.10919 7.04704 2.33338 9 2.33338C10.953 2.33338 12.8259 3.10919 14.2069 4.49014C15.5878 5.87109 16.3636 7.74406 16.3636 9.69701C16.3653 11.291 15.8443 12.8416 14.8803 14.1111Z" fill="#89BF15"/>
</svg>
