<svg width="27" height="30" viewBox="0 0 27 30" fill="none" xmlns="http://www.w3.org/2000/svg">
<path d="M24.1567 17.3074C23.8743 16.9985 23.4773 16.8221 23.0581 16.8221H14.6802V14.5765H23.0581C23.4773 14.5765 23.8743 14.4 24.1567 14.0912L25.864 12.1853C26.367 11.625 26.367 10.778 25.864 10.2177L24.1567 8.31181C23.8743 7.99858 23.4773 7.8221 23.0581 7.8221H20.1023C19.8596 7.8221 19.6611 8.02063 19.6611 8.26328C19.6611 8.50593 19.8596 8.70446 20.1023 8.70446H23.0581C23.2258 8.70446 23.3846 8.77505 23.4993 8.89857L25.2067 10.8045C25.4096 11.0295 25.4096 11.3692 25.2067 11.5942L23.4993 13.5C23.3846 13.6236 23.2258 13.6942 23.0581 13.6942H14.6802V8.70441H18.3773C18.6199 8.70441 18.8184 8.50588 18.8184 8.26324C18.8184 8.02059 18.6199 7.82206 18.3773 7.82206H14.6802V6.56471C15.5758 6.03088 16.1758 5.05147 16.1758 3.9353C16.1758 2.25 14.8081 0.882355 13.1228 0.882355C12.2008 0.882355 11.3361 1.29265 10.7537 2.00735C10.5993 2.19706 10.6257 2.475 10.8154 2.625C11.0051 2.78383 11.2831 2.75294 11.4375 2.56324C11.8522 2.05588 12.4654 1.76471 13.1228 1.76471C14.3228 1.76471 15.2934 2.73971 15.2934 3.9353C15.2934 5.1353 14.3228 6.1103 13.1228 6.1103C11.9436 6.1103 10.8669 5.15224 10.9566 3.71912C10.9831 3.47647 10.8066 3.2603 10.564 3.23824C10.3257 3.21177 10.1051 3.38824 10.0787 3.63088C9.96918 4.88855 10.5874 5.97693 11.5654 6.56471V10.8088H3.18309C2.76838 10.8088 2.36691 10.9853 2.08897 11.2985L0.377206 13.2044C-0.125735 13.7647 -0.125735 14.6118 0.377206 15.1721L2.08897 17.0779C2.36691 17.3868 2.76838 17.5632 3.18309 17.5632H5.98897C6.23162 17.5632 6.43015 17.3691 6.43015 17.1221C6.43015 16.8794 6.23162 16.6809 5.98897 16.6809H3.18309C3.01544 16.6809 2.85662 16.6103 2.74632 16.4868L1.03456 14.5809C0.831618 14.3559 0.831618 14.0162 1.03456 13.7912L2.74632 11.8853C2.85662 11.7618 3.01544 11.6912 3.18309 11.6912H11.5654V16.6809H8.2875C8.04485 16.6809 7.84632 16.8795 7.84632 17.1221C7.84632 17.3692 8.04485 17.5633 8.2875 17.5633H11.5654V25.3809H10.6522C10.4096 25.3809 10.211 25.5795 10.211 25.8221C10.211 26.0648 10.4096 26.2633 10.6522 26.2633H17.1816C17.711 26.2633 18.1434 26.6956 18.1434 27.225V28.2353H8.10225V27.225C8.10225 26.6956 8.53019 26.2632 9.06401 26.2632C9.30666 26.2632 9.50519 26.0647 9.50519 25.8221C9.50519 25.5794 9.30666 25.3809 9.06401 25.3809C8.0449 25.3809 7.2199 26.2059 7.2199 27.225V28.6765C7.2199 28.9191 7.41401 29.1176 7.66107 29.1176H18.5846C18.8272 29.1176 19.0258 28.9191 19.0258 28.6765V27.225C19.0258 26.2059 18.1964 25.3809 17.1817 25.3809H14.6802V23.5765H18.2008C18.4434 23.5765 18.642 23.3779 18.642 23.1353C18.642 22.8926 18.4434 22.6941 18.2008 22.6941H14.6802V17.7044H23.0581C23.2258 17.7044 23.3846 17.775 23.4993 17.8985L25.2067 19.8044C25.4096 20.0294 25.4096 20.3691 25.2067 20.5941L23.4993 22.4956C23.3846 22.6235 23.2258 22.6941 23.0581 22.6941H20.1817C19.939 22.6941 19.7405 22.8926 19.7405 23.1353C19.7405 23.3779 19.939 23.5765 20.1817 23.5765H23.0581C23.4773 23.5765 23.8743 23.3956 24.1567 23.0868L25.864 21.1809C26.367 20.6206 26.367 19.7735 25.864 19.2132L24.1567 17.3074ZM13.7978 25.3765H12.4478V6.91765C12.664 6.96177 12.8934 6.99265 13.1228 6.99265C13.3567 6.99265 13.5817 6.96618 13.7978 6.91765V25.3765Z" fill="white"/>
</svg>
