<svg width="26" height="21" viewBox="0 0 26 21" fill="none" xmlns="http://www.w3.org/2000/svg">
<path d="M5.93463 6.55306L5.93463 16.7232C5.93463 17.6384 5.6101 18.3668 5.08632 18.865C4.56915 19.3569 3.88773 19.5959 3.21731 19.5959C2.54688 19.5959 1.86546 19.3569 1.3483 18.865C0.824512 18.3668 0.49998 17.6384 0.49998 16.7232L0.49998 6.55306C0.49998 5.63769 0.824481 4.90915 1.34825 4.41082C1.86541 3.91878 2.54684 3.67973 3.21731 3.67973C3.88777 3.67973 4.5692 3.91878 5.08636 4.41082C5.61013 4.90915 5.93463 5.63769 5.93463 6.55306Z" fill="#89BF15" stroke="#89BF15"/>
<path d="M15.9346 5.20551L15.9346 16.9868C15.9346 17.858 15.5391 18.5294 14.9534 18.9686C14.3818 19.3972 13.6455 19.5959 12.9346 19.5959C12.2237 19.5959 11.4875 19.3972 10.9159 18.9686C10.3302 18.5294 9.93463 17.858 9.93463 16.9868L9.93463 5.20551C9.93463 4.33415 10.3301 3.66268 10.9159 3.22331C11.4874 2.79459 12.2237 2.59589 12.9346 2.59589C13.6456 2.59589 14.3818 2.79459 14.9534 3.22331C15.5392 3.66268 15.9346 4.33415 15.9346 5.20551Z" fill="white" stroke="#89BF15"/>
<path d="M25.3693 3.46921L25.3693 16.7232C25.3693 17.6384 25.0448 18.3668 24.521 18.865C24.0038 19.3569 23.3224 19.5959 22.652 19.5959C21.9816 19.5959 21.3002 19.3569 20.783 18.865C20.2592 18.3668 19.9347 17.6384 19.9347 16.7232L19.9347 3.46921C19.9347 2.55385 20.2592 1.8253 20.7829 1.32698C21.3001 0.834936 21.9815 0.595886 22.652 0.595886C23.3225 0.595886 24.0039 0.834936 24.5211 1.32698C25.0448 1.8253 25.3693 2.55385 25.3693 3.46921Z" fill="white" stroke="#89BF15"/>
</svg>
