<svg width="26" height="21" viewBox="0 0 26 21" fill="none" xmlns="http://www.w3.org/2000/svg">
<path d="M5.93466 6.55306L5.93466 16.7232C5.93466 17.6384 5.61013 18.3668 5.08635 18.865C4.56918 19.3569 3.88776 19.5959 3.21734 19.5959C2.54691 19.5959 1.86549 19.3569 1.34833 18.865C0.824542 18.3668 0.500011 17.6384 0.500011 16.7232L0.50001 6.55306C0.50001 5.63769 0.824511 4.90915 1.34828 4.41082C1.86544 3.91878 2.54688 3.67973 3.21734 3.67973C3.8878 3.67973 4.56923 3.91878 5.08639 4.41082C5.61016 4.90915 5.93466 5.63769 5.93466 6.55306Z" fill="#FFB800" stroke="#FFB800"/>
<path d="M15.37 5.01114L15.37 16.7232C15.37 17.6384 15.0454 18.3668 14.5216 18.865C14.0043 19.3569 13.3228 19.5959 12.6523 19.5959C11.9819 19.5959 11.3003 19.3569 10.7831 18.865C10.2592 18.3668 9.93465 17.6384 9.93465 16.7232L9.93465 5.01114C9.93465 4.09574 10.2592 3.36719 10.7831 2.86887C11.3003 2.37684 11.9818 2.13781 12.6523 2.13781C13.3229 2.13781 14.0044 2.37684 14.5216 2.86887C15.0455 3.36719 15.37 4.09574 15.37 5.01114Z" fill="#FFB800" stroke="#FFB800"/>
<path d="M24.8047 3.46921L24.8047 16.7232C24.8047 17.6384 24.4801 18.3668 23.9564 18.865C23.4392 19.3569 22.7578 19.5959 22.0873 19.5959C21.4169 19.5959 20.7355 19.3569 20.2183 18.865C19.6946 18.3668 19.37 17.6384 19.37 16.7232L19.37 3.46921C19.37 2.55385 19.6945 1.8253 20.2183 1.32698C20.7354 0.834936 21.4169 0.595886 22.0873 0.595886C22.7578 0.595886 23.4392 0.834936 23.9564 1.32698C24.4802 1.8253 24.8047 2.55385 24.8047 3.46921Z" fill="white" stroke="#FFB800"/>
</svg>
