<svg width="25" height="20" viewBox="0 0 25 20" xmlns="http://www.w3.org/2000/svg">
<path d="M13.3987 19.58C13.2644 19.4473 13.1579 19.2896 13.0853 19.116C13.0126 18.9424 12.9752 18.7563 12.9752 18.5683C12.9752 18.3804 13.0126 18.1943 13.0853 18.0207C13.1579 17.8471 13.2644 17.6894 13.3987 17.5567L19.5762 11.4288L1.93972 11.4288C1.55788 11.4288 1.19168 11.2784 0.921684 11.0105C0.651685 10.7427 0.5 10.3794 0.5 10.0007C0.5 9.62191 0.651685 9.25865 0.921684 8.99082C1.19168 8.723 1.55788 8.57253 1.93972 8.57253L19.5762 8.57253L13.3987 2.44222C13.1282 2.17393 12.9762 1.81005 12.9762 1.43062C12.9762 1.0512 13.1282 0.687313 13.3987 0.419019C13.6691 0.150725 14.036 -4.534e-07 14.4185 -4.40678e-07C14.801 -4.27957e-07 15.1678 0.150726 15.4383 0.419019L24.0765 8.98788C24.2108 9.12056 24.3173 9.27822 24.3899 9.45181C24.4626 9.62541 24.5 9.81152 24.5 9.99949C24.5 10.1874 24.4626 10.3736 24.3899 10.5472C24.3173 10.7208 24.2108 10.8784 24.0765 11.0111L15.4383 19.58C15.3045 19.7131 15.1456 19.8187 14.9706 19.8908C14.7956 19.9629 14.6079 20 14.4185 20C14.229 20 14.0413 19.9629 13.8663 19.8908C13.6913 19.8187 13.5324 19.7131 13.3987 19.58Z" fill="white"/>
</svg>