<svg viewBox="0 0 1024.001 1056.923" xmlns="http://www.w3.org/2000/svg"><path d="M202.507 21.333h5.552c1.63-.047 3.546-.074 5.47-.074 109.595 0 198.856 87.06 202.397 195.792l.008.325v1.092c0 53.015-31.855 119.82-94.336 198.546-29.008 36.197-58.517 68.59-89.925 99.035l-.27.262-23.437 22.162-23.664-22.162c-31.582-30.692-61.018-63.084-88.363-97.223l-1.604-2.074C31.718 338.29 0 271.484 0 218.47v-1.093C3.59 108.35 92.834 21.333 202.403 21.333h.11-.007zm5.552 68.26h-1.002c-1.382-.05-3.006-.08-4.636-.08-72.458 0-131.508 57.405-134.153 129.217l-.008.24c.455 60.434 78.18 160.777 139.707 224.442 61.525-63.71 139.25-163.825 139.706-224.44-2.705-72.01-61.734-129.36-134.157-129.36-1.553 0-3.098.027-4.637.08l.224-.006zm43.14 139.798c0 23.877-19.355 43.233-43.232 43.233s-43.232-19.355-43.232-43.232c0-23.875 19.355-43.23 43.232-43.23s43.232 19.354 43.232 43.23zm559.1 226.626h11.286c109.393.063 198.494 86.854 202.27 195.335l.01.346v1.183c0 53.015-31.856 119.82-94.337 198.546-28.93 36.096-58.35 68.4-89.658 98.767l-.265.256-23.345 22.07-23.436-21.98c-31.885-30.538-61.48-62.714-88.952-96.677l-1.516-1.937c-62.618-78.5-94.382-145.623-94.382-199.093v-1.183c3.785-108.826 92.886-195.618 202.273-195.68h.005zm5.643 68.26h-1.138c-1.477-.057-3.21-.09-4.95-.09-72.193 0-131.022 57.216-133.612 128.776l-.007.236c11.408 61.08 39.603 114.245 79.566 156.07l-.11-.117c22.116 27.76 44.324 51.88 60.297 68.262 61.48-63.71 139.16-163.825 139.66-224.35-2.666-71.74-61.466-128.886-133.613-128.886-1.823 0-3.637.036-5.442.11l.26-.01zm43.23 139.253c0 23.875-19.354 43.23-43.23 43.23s-43.233-19.354-43.233-43.23c0-23.877 19.355-43.233 43.232-43.233s43.232 19.355 43.232 43.232zm.456 381.803H142.892C64.018 1045.23.103 981.316 0 902.45v-.874C2.01 824.22 65.196 762.28 142.85 762.28h217.114c41.218 0 74.632-33.415 74.632-74.633s-33.414-74.632-74.632-74.632h-195.68v-68.26h195.68c78.917 0 142.892 63.974 142.892 142.89S438.88 830.54 359.962 830.54h-217.07c-40.463 0-73.265 32.802-73.265 73.266s32.802 73.266 73.266 73.266H859.63z"/></svg>